<?xml version="1.0" encoding="utf-8"?>
<svg width="500" zoomAndPan="magnify" viewBox="0 0 375 374.999991" height="500" preserveAspectRatio="xMidYMid meet" version="1.0" xmlns="http://www.w3.org/2000/svg">
  <defs>
    <clipPath id="id1">
      <path d="M 42 43 L 324.75 43 L 324.75 326 L 42 326 Z M 42 43 " clip-rule="nonzero"/>
    </clipPath>
  </defs>
  <g clip-path="url(#id1)" style="" transform="matrix(1.132389, 0, 0, 1.132389, -20.423698, -21.82163)">
    <path fill="#c7ebe6" d="M 253.042969 300.136719 C 323.792969 255.921875 324.742188 176.449219 324.722656 172.808594 C 324.46875 132.988281 306.191406 75.464844 256.789062 53.429688 C 233.378906 42.988281 196.367188 37.578125 169.980469 55.167969 C 145.34375 71.589844 156.019531 90.695312 128.835938 123.496094 C 97.53125 161.269531 72.351562 156.167969 51.363281 189.15625 C 37.496094 210.949219 43.613281 237.320312 45.367188 244.886719 C 58.226562 300.34375 125.726562 319.40625 133.300781 321.421875 C 193.398438 337.40625 242.867188 306.492188 253.042969 300.136719 " fill-opacity="1" fill-rule="nonzero"/>
  </g>
  <path fill="#ffffff" d="M 322.991 33.246 L 71.543 33.246 C 65.996 33.246 61.498 37.749 61.498 43.296 L 61.498 215.689 C 61.498 221.24 65.996 225.739 71.543 225.739 L 322.991 225.739 C 328.543 225.739 333.041 221.24 333.041 215.689 L 333.041 43.296 C 333.041 37.749 328.543 33.246 322.991 33.246" fill-opacity="1" fill-rule="nonzero" style=""/>
  <path fill="#000000" d="M 206.669 33.825 L 143.428 33.825 C 143.109 33.825 142.848 33.569 142.848 33.246 C 142.848 32.927 143.109 32.671 143.428 32.671 L 206.669 32.671 C 206.988 32.671 207.249 32.927 207.249 33.246 C 207.249 33.569 206.988 33.825 206.669 33.825" fill-opacity="1" fill-rule="nonzero" style=""/>
  <path fill="#000000" d="M 229.852 33.825 L 220.789 33.825 C 220.47 33.825 220.214 33.569 220.214 33.246 C 220.214 32.927 220.47 32.671 220.789 32.671 L 229.852 32.671 C 230.171 32.671 230.432 32.927 230.432 33.246 C 230.432 33.569 230.171 33.825 229.852 33.825" fill-opacity="1" fill-rule="nonzero" style=""/>
  <path fill="#000000" d="M 300.896 33.825 L 274.9 33.825 C 274.582 33.825 274.325 33.569 274.325 33.246 C 274.325 32.927 274.582 32.671 274.9 32.671 L 300.896 32.671 C 301.215 32.671 301.476 32.927 301.476 33.246 C 301.476 33.569 301.215 33.825 300.896 33.825" fill-opacity="1" fill-rule="nonzero" style=""/>
  <path fill="#000000" d="M 333.041 52.085 C 332.718 52.085 332.462 51.828 332.462 51.506 L 332.462 43.296 C 332.462 38.076 328.215 33.825 322.991 33.825 L 300.896 33.825 C 300.578 33.825 300.317 33.569 300.317 33.246 C 300.317 32.927 300.578 32.671 300.896 32.671 L 322.991 32.671 C 328.852 32.671 333.616 37.435 333.616 43.296 L 333.616 51.506 C 333.616 51.828 333.36 52.085 333.041 52.085" fill-opacity="1" fill-rule="nonzero" style=""/>
  <path fill="#000000" d="M 333.041 86.764 C 332.723 86.764 332.462 86.503 332.462 86.185 L 332.462 59.711 C 332.462 59.388 332.723 59.132 333.041 59.132 C 333.36 59.132 333.616 59.388 333.616 59.711 L 333.616 86.185 C 333.616 86.503 333.36 86.764 333.041 86.764" fill-opacity="1" fill-rule="nonzero" style=""/>
  <path fill="#000000" d="M 333.041 98.61 C 332.723 98.61 332.462 98.354 332.462 98.035 L 332.462 90.555 C 332.462 90.237 332.723 89.98 333.041 89.98 C 333.36 89.98 333.616 90.237 333.616 90.555 L 333.616 98.035 C 333.616 98.354 333.36 98.61 333.041 98.61" fill-opacity="1" fill-rule="nonzero" style=""/>
  <path fill="#c7ebe6" d="M 318.97 59.711 L 75.564 59.711 L 75.564 47.653 L 318.97 47.653 L 318.97 59.711" fill-opacity="1" fill-rule="nonzero" style=""/>
  <path fill="#c7ebe6" d="M 318.975 148.758 L 75.564 148.758 L 75.564 68.522 L 318.975 68.522 L 318.975 148.758" fill-opacity="1" fill-rule="nonzero" style=""/>
  <path fill="#ffffff" d="M 313.423 53.682 C 313.423 55.283 312.127 56.584 310.522 56.584 C 308.92 56.584 307.62 55.283 307.62 53.682 C 307.62 52.076 308.92 50.78 310.522 50.78 C 312.127 50.78 313.423 52.076 313.423 53.682" fill-opacity="1" fill-rule="nonzero" style=""/>
  <path fill="#c7ebe6" d="M 152.04 204.303 L 75.564 204.303 L 75.564 154.283 L 152.04 154.283 L 152.04 204.303" fill-opacity="1" fill-rule="nonzero" style=""/>
  <path fill="#c7ebe6" d="M 235.505 204.303 L 159.029 204.303 L 159.029 154.283 L 235.505 154.283 L 235.505 204.303" fill-opacity="1" fill-rule="nonzero" style=""/>
  <path fill="#c7ebe6" d="M 318.975 204.298 L 242.494 204.298 L 242.494 154.279 L 318.975 154.279 L 318.975 204.298" fill-opacity="1" fill-rule="nonzero" style=""/>
  <path fill="#ffffff" d="M 296.721 179.293 C 296.721 188.122 289.564 195.279 280.735 195.279 C 271.901 195.279 264.744 188.122 264.744 179.293 C 264.744 170.46 271.901 163.302 280.735 163.302 C 289.564 163.302 296.721 170.46 296.721 179.293" fill-opacity="1" fill-rule="nonzero" style=""/>
  <path fill="#ffffff" d="M 213.256 179.293 C 213.256 188.122 206.099 195.279 197.269 195.279 C 188.436 195.279 181.279 188.122 181.279 179.293 C 181.279 170.46 188.436 163.302 197.269 163.302 C 206.099 163.302 213.256 170.46 213.256 179.293" fill-opacity="1" fill-rule="nonzero" style=""/>
  <path fill="#ffffff" d="M 129.791 179.293 C 129.791 188.122 122.634 195.279 113.804 195.279 C 104.971 195.279 97.814 188.122 97.814 179.293 C 97.814 170.46 104.971 163.302 113.804 163.302 C 122.634 163.302 129.791 170.46 129.791 179.293" fill-opacity="1" fill-rule="nonzero" style=""/>
  <path fill="#128c7e" d="M 313.454 340.203 L 179.908 340.203 C 171.892 340.203 165.894 332.842 167.509 324.991 L 187.768 226.504 C 189.471 218.219 196.765 212.274 205.218 212.274 L 319.771 212.274 L 313.454 340.203" fill-opacity="1" fill-rule="nonzero" style=""/>
  <path fill="#000000" d="M 205.218 212.853 C 197.075 212.853 189.975 218.644 188.334 226.619 L 168.071 325.11 C 167.336 328.68 168.239 332.351 170.543 335.178 C 172.848 338.004 176.258 339.623 179.908 339.623 L 312.901 339.623 L 319.161 212.853 Z M 313.454 340.778 L 179.908 340.778 C 175.913 340.778 172.171 339.004 169.645 335.908 C 167.124 332.811 166.138 328.791 166.943 324.876 L 187.202 226.385 C 188.953 217.874 196.531 211.699 205.218 211.699 L 319.771 211.699 C 319.926 211.699 320.076 211.765 320.187 211.88 C 320.293 211.991 320.35 212.146 320.342 212.305 L 314.029 340.229 C 314.012 340.539 313.76 340.778 313.454 340.778" fill-opacity="1" fill-rule="nonzero" style=""/>
  <path fill="#075e54" d="M 330.551 340.203 L 304.634 340.203 C 296.619 340.203 290.621 332.842 292.235 324.991 L 314.551 216.511 C 315.06 214.048 317.228 212.278 319.749 212.278 L 326.415 212.278 C 329.175 212.278 331.475 214.397 331.701 217.148 L 340.831 329.052 C 341.322 335.058 336.575 340.203 330.551 340.203" fill-opacity="1" fill-rule="nonzero" style=""/>
  <path fill="#000000" d="M 319.749 212.853 C 317.515 212.853 315.569 214.441 315.118 216.626 L 292.802 325.11 C 292.067 328.68 292.97 332.347 295.27 335.178 C 297.579 338.004 300.989 339.623 304.634 339.623 L 330.551 339.623 C 333.307 339.623 335.846 338.509 337.712 336.487 C 339.575 334.466 340.481 331.838 340.256 329.096 L 331.126 217.197 C 330.927 214.76 328.857 212.853 326.415 212.853 Z M 330.551 340.778 L 304.634 340.778 C 300.64 340.778 296.902 339.004 294.376 335.908 C 291.855 332.811 290.869 328.791 291.674 324.876 L 313.985 216.396 C 314.547 213.672 316.971 211.699 319.749 211.699 L 326.415 211.699 C 329.454 211.699 332.028 214.07 332.276 217.104 L 341.406 329.003 C 341.654 332.028 340.614 335.036 338.557 337.27 C 336.505 339.5 333.585 340.778 330.551 340.778" fill-opacity="1" fill-rule="nonzero" style=""/>
  <path fill="#000000" d="M 322.292 336.93 L 304.634 336.93 C 301.803 336.93 299.149 335.669 297.358 333.475 C 295.571 331.276 294.872 328.428 295.442 325.65 L 302.767 290.042 C 302.829 289.728 303.139 289.528 303.449 289.59 C 303.763 289.657 303.962 289.962 303.9 290.272 L 296.575 325.884 C 296.07 328.317 296.685 330.816 298.256 332.745 C 299.826 334.669 302.148 335.775 304.634 335.775 L 322.292 335.775 C 322.611 335.775 322.872 336.032 322.872 336.35 C 322.872 336.673 322.611 336.93 322.292 336.93" fill-opacity="1" fill-rule="nonzero" style=""/>
  <path fill="#000000" d="M 330.551 336.93 C 330.232 336.93 329.971 336.673 329.971 336.35 C 329.971 336.032 330.232 335.775 330.551 335.775 C 332.214 335.775 333.749 335.098 334.877 333.877 C 336.005 332.657 336.553 331.069 336.416 329.41 L 334.333 303.909 C 334.306 303.59 334.545 303.312 334.864 303.29 C 335.187 303.259 335.461 303.498 335.487 303.816 L 337.566 329.317 C 337.726 331.303 337.075 333.196 335.726 334.66 C 334.377 336.125 332.537 336.93 330.551 336.93" fill-opacity="1" fill-rule="nonzero" style=""/>
  <path fill="#000000" d="M 329.122 233.475 C 328.821 233.475 328.569 233.245 328.547 232.944 L 328.109 227.627 C 328.087 227.309 328.321 227.03 328.64 227.004 C 328.963 226.977 329.237 227.216 329.264 227.535 L 329.697 232.847 C 329.724 233.166 329.485 233.444 329.166 233.471 C 329.153 233.475 329.135 233.475 329.122 233.475" fill-opacity="1" fill-rule="nonzero" style=""/>
  <path fill="#000000" d="M 312.203 247.617 C 312.163 247.617 312.123 247.612 312.088 247.604 C 311.773 247.537 311.574 247.232 311.636 246.922 L 317.754 217.171 C 317.949 216.233 318.789 215.547 319.744 215.547 L 326.411 215.547 C 327.463 215.547 328.352 216.37 328.436 217.414 L 328.724 220.899 C 328.746 221.214 328.512 221.492 328.193 221.519 C 327.87 221.545 327.596 221.311 327.574 220.992 L 327.286 217.511 C 327.251 217.06 326.866 216.706 326.411 216.706 L 319.744 216.706 C 319.333 216.706 318.97 216.998 318.886 217.405 L 312.769 247.152 C 312.716 247.427 312.472 247.617 312.203 247.617" fill-opacity="1" fill-rule="nonzero" style=""/>
  <path fill="#000000" d="M 295.257 264.554 L 190.696 264.554 C 190.378 264.554 190.117 264.293 190.117 263.975 C 190.117 263.656 190.378 263.399 190.696 263.399 L 295.257 263.399 C 298.101 263.399 300.547 261.466 301.206 258.697 L 310.42 219.785 C 310.495 219.475 310.805 219.285 311.114 219.356 C 311.424 219.431 311.619 219.745 311.543 220.055 L 302.33 258.963 C 301.547 262.254 298.64 264.554 295.257 264.554" fill-opacity="1" fill-rule="nonzero" style=""/>
  <path fill="#ffffff" d="M 254.902 263.975 L 251.974 275.789 C 251.5 277.789 249.713 279.2 247.661 279.2 L 226.95 279.2 C 224.695 279.2 223.062 277.05 223.668 274.878 L 226.698 263.975 L 254.902 263.975" fill-opacity="1" fill-rule="nonzero" style=""/>
  <path fill="#000000" d="M 227.136 264.554 L 224.221 275.033 C 223.982 275.896 224.155 276.794 224.695 277.506 C 225.234 278.218 226.061 278.625 226.95 278.625 L 247.661 278.625 C 249.452 278.625 250.996 277.404 251.412 275.657 L 254.163 264.554 Z M 247.661 279.779 L 226.95 279.779 C 225.694 279.779 224.535 279.204 223.774 278.205 C 223.018 277.205 222.775 275.935 223.111 274.723 L 226.141 263.82 C 226.212 263.572 226.442 263.399 226.698 263.399 L 254.902 263.399 C 255.079 263.399 255.247 263.479 255.358 263.621 C 255.464 263.758 255.503 263.944 255.459 264.116 L 252.531 275.927 C 251.996 278.196 249.992 279.779 247.661 279.779" fill-opacity="1" fill-rule="nonzero" style=""/>
  <path fill="#000000" d="M 285.715 330.887 L 174.635 330.887 C 174.316 330.887 174.055 330.626 174.055 330.308 C 174.055 329.989 174.316 329.728 174.635 329.728 L 285.715 329.728 C 286.034 329.728 286.295 329.989 286.295 330.308 C 286.295 330.626 286.034 330.887 285.715 330.887" fill-opacity="1" fill-rule="nonzero" style=""/>
  <path fill="#075e54" d="M 231.604 207.806 L 222.934 207.806 C 220.594 207.806 218.692 209.704 218.692 212.048 L 235.846 212.048 C 235.846 209.704 233.948 207.806 231.604 207.806" fill-opacity="1" fill-rule="nonzero" style=""/>
  <path fill="#000000" d="M 219.316 211.469 L 235.222 211.469 C 234.948 209.722 233.431 208.381 231.604 208.381 L 222.934 208.381 C 221.112 208.381 219.594 209.722 219.316 211.469 Z M 235.846 212.623 L 218.692 212.623 C 218.373 212.623 218.117 212.367 218.117 212.048 C 218.117 209.39 220.276 207.231 222.934 207.231 L 231.604 207.231 C 234.262 207.231 236.425 209.39 236.425 212.048 C 236.425 212.367 236.164 212.623 235.846 212.623" fill-opacity="1" fill-rule="nonzero" style=""/>
  <path fill="#075e54" d="M 301.095 207.806 L 292.426 207.806 C 290.086 207.806 288.184 209.708 288.184 212.048 L 305.337 212.048 C 305.337 209.708 303.44 207.806 301.095 207.806" fill-opacity="1" fill-rule="nonzero" style=""/>
  <path fill="#000000" d="M 288.812 211.469 L 304.718 211.469 C 304.439 209.722 302.922 208.381 301.1 208.381 L 292.43 208.381 C 290.603 208.381 289.086 209.722 288.812 211.469 Z M 305.342 212.623 L 288.188 212.623 C 287.865 212.623 287.608 212.367 287.608 212.048 C 287.608 209.39 289.772 207.227 292.43 207.227 L 301.1 207.227 C 303.758 207.227 305.917 209.39 305.917 212.048 C 305.917 212.367 305.66 212.623 305.342 212.623" fill-opacity="1" fill-rule="nonzero" style=""/>
  <path fill="#ffffff" d="M 298.835 207.581 L 300.233 199.278 C 301.224 193.39 297.256 188.622 291.368 188.622 L 239.371 188.622 C 233.488 188.622 227.915 193.39 226.919 199.278 L 225.526 207.581 L 229.503 207.581 L 230.591 201.118 C 231.365 196.535 235.7 192.824 240.283 192.824 L 289.042 192.824 C 293.624 192.824 296.712 196.535 295.942 201.118 L 294.854 207.581 L 298.835 207.581" fill-opacity="1" fill-rule="nonzero" style=""/>
  <path fill="#000000" d="M 295.54 207.001 L 298.344 207.001 L 299.662 199.181 C 300.118 196.478 299.49 193.948 297.893 192.063 C 296.331 190.214 294.014 189.201 291.368 189.201 L 239.376 189.201 C 233.767 189.201 228.437 193.762 227.495 199.375 L 226.207 207.001 L 229.016 207.001 L 230.02 201.021 C 230.839 196.182 235.439 192.245 240.283 192.245 L 289.042 192.245 C 291.408 192.245 293.492 193.165 294.907 194.837 C 296.345 196.54 296.915 198.805 296.513 201.211 Z M 298.835 208.156 L 294.854 208.156 C 294.686 208.156 294.522 208.08 294.416 207.952 C 294.305 207.82 294.257 207.651 294.288 207.483 L 295.372 201.021 C 295.721 198.955 295.243 197.022 294.027 195.584 C 292.833 194.178 291.063 193.399 289.042 193.399 L 240.283 193.399 C 235.979 193.399 231.887 196.907 231.162 201.211 L 230.073 207.674 C 230.025 207.952 229.786 208.156 229.503 208.156 L 225.526 208.156 C 225.354 208.156 225.194 208.08 225.084 207.952 C 224.973 207.82 224.925 207.651 224.956 207.483 L 226.353 199.181 C 227.388 193.041 233.227 188.043 239.376 188.043 L 291.368 188.043 C 294.359 188.043 296.99 189.206 298.773 191.316 C 300.596 193.47 301.312 196.328 300.799 199.375 L 299.406 207.674 C 299.357 207.952 299.118 208.156 298.835 208.156" fill-opacity="1" fill-rule="nonzero" style=""/>
  <path fill="#128c7e" d="M 288.785 185.185 L 243.114 185.185 C 241.273 185.185 239.531 186.676 239.217 188.52 L 238.549 192.506 C 238.239 194.346 239.478 195.841 241.318 195.841 L 286.994 195.841 C 288.829 195.841 290.577 194.346 290.886 192.506 L 291.554 188.52 C 291.868 186.676 290.625 185.185 288.785 185.185" fill-opacity="1" fill-rule="nonzero" style=""/>
  <path fill="#000000" d="M 243.114 185.76 C 241.543 185.76 240.053 187.043 239.792 188.613 L 239.119 192.603 C 238.995 193.328 239.159 194.005 239.579 194.505 C 239.995 194.992 240.61 195.261 241.318 195.261 L 286.994 195.261 C 288.56 195.261 290.055 193.983 290.316 192.413 L 290.988 188.423 C 291.112 187.693 290.948 187.012 290.523 186.516 C 290.112 186.03 289.493 185.76 288.785 185.76 Z M 286.994 196.416 L 241.318 196.416 C 240.265 196.416 239.336 196.005 238.699 195.253 C 238.053 194.487 237.797 193.479 237.978 192.413 L 238.65 188.423 C 239.004 186.317 241.008 184.606 243.114 184.606 L 288.785 184.606 C 289.842 184.606 290.771 185.021 291.408 185.769 C 292.054 186.534 292.306 187.543 292.129 188.613 L 291.457 192.603 C 291.103 194.704 289.099 196.416 286.994 196.416" fill-opacity="1" fill-rule="nonzero" style=""/>
  <path fill="#128c7e" d="M 304.391 330.887 C 304.192 330.887 303.997 330.781 303.891 330.591 C 303.727 330.317 303.829 329.963 304.108 329.803 L 321.713 319.771 L 321.713 219.922 C 321.713 219.603 321.974 219.342 322.292 219.342 C 322.611 219.342 322.872 219.603 322.872 219.922 L 322.872 320.107 C 322.872 320.315 322.761 320.506 322.58 320.607 L 304.678 330.808 C 304.585 330.861 304.488 330.887 304.391 330.887" fill-opacity="1" fill-rule="nonzero" style=""/>
  <path fill="#075e54" d="M 218.48 139.5 C 218.161 139.5 217.905 139.244 217.905 138.921 L 217.905 133.179 C 217.905 132.861 218.161 132.6 218.48 132.6 C 218.798 132.6 219.055 132.861 219.055 133.179 L 219.055 138.921 C 219.055 139.244 218.798 139.5 218.48 139.5" fill-opacity="1" fill-rule="nonzero" style=""/>
  <path fill="#075e54" d="M 218.48 170.256 C 218.161 170.256 217.905 169.995 217.905 169.677 L 217.905 161.507 C 217.905 161.188 218.161 160.927 218.48 160.927 C 218.798 160.927 219.055 161.188 219.055 161.507 L 219.055 169.677 C 219.055 169.995 218.798 170.256 218.48 170.256" fill-opacity="1" fill-rule="nonzero" style=""/>
  <path fill="#075e54" d="M 171.853 219.639 C 171.534 219.639 171.273 219.382 171.273 219.059 L 171.273 194.744 C 171.273 191.108 174.232 188.153 177.864 188.153 L 212.464 188.153 C 215.463 188.153 217.905 185.711 217.905 182.712 L 217.905 173.742 C 217.905 173.423 218.161 173.162 218.48 173.162 C 218.798 173.162 219.055 173.423 219.055 173.742 L 219.055 182.712 C 219.055 186.348 216.1 189.308 212.464 189.308 L 177.864 189.308 C 174.869 189.308 172.428 191.745 172.428 194.744 L 172.428 219.059 C 172.428 219.382 172.171 219.639 171.853 219.639" fill-opacity="1" fill-rule="nonzero" style=""/>
  <path fill="#075e54" d="M 171.853 246.281 C 171.534 246.281 171.273 246.02 171.273 245.701 L 171.273 240.057 C 171.273 239.739 171.534 239.478 171.853 239.478 C 172.171 239.478 172.428 239.739 172.428 240.057 L 172.428 245.701 C 172.428 246.02 172.171 246.281 171.853 246.281" fill-opacity="1" fill-rule="nonzero" style=""/>
  <path fill="#075e54" d="M 157.154 321.58 L 83.133 321.58 C 79.497 321.58 76.537 318.626 76.537 314.99 L 76.537 299.247 C 76.537 295.611 79.497 292.656 83.133 292.656 L 105.435 292.656 C 108.43 292.656 110.872 290.214 110.872 287.215 C 110.872 283.583 113.827 280.624 117.463 280.624 L 165.837 280.624 C 168.836 280.624 171.273 278.187 171.273 275.188 L 171.273 255.973 C 171.273 255.654 171.534 255.393 171.853 255.393 C 172.171 255.393 172.428 255.654 172.428 255.973 L 172.428 275.188 C 172.428 278.824 169.473 281.779 165.837 281.779 L 117.463 281.779 C 114.464 281.779 112.026 284.22 112.026 287.215 C 112.026 290.851 109.067 293.806 105.435 293.806 L 83.133 293.806 C 80.134 293.806 77.696 296.248 77.696 299.247 L 77.696 314.99 C 77.696 317.989 80.134 320.426 83.133 320.426 L 157.154 320.426 C 157.472 320.426 157.733 320.687 157.733 321.005 C 157.733 321.324 157.472 321.58 157.154 321.58" fill-opacity="1" fill-rule="nonzero" style=""/>
  <path fill="#ffffff" d="M 318.01 67.151 L 202.529 67.151 C 199.605 67.151 197.234 69.522 197.234 72.446 L 197.234 123.625 C 197.234 126.548 199.605 128.919 202.529 128.919 L 318.01 128.919 C 320.934 128.919 323.301 126.548 323.301 123.625 L 323.301 72.446 C 323.301 69.522 320.934 67.151 318.01 67.151" fill-opacity="1" fill-rule="nonzero" style=""/>
  <path fill="#000000" d="M 202.529 67.731 C 199.928 67.731 197.814 69.845 197.814 72.446 L 197.814 123.625 C 197.814 126.226 199.928 128.34 202.529 128.34 L 318.006 128.34 C 320.607 128.34 322.726 126.226 322.726 123.625 L 322.726 72.446 C 322.726 69.845 320.607 67.731 318.006 67.731 Z M 318.006 129.494 L 202.529 129.494 C 199.291 129.494 196.659 126.863 196.659 123.625 L 196.659 72.446 C 196.659 69.208 199.291 66.576 202.529 66.576 L 318.006 66.576 C 321.244 66.576 323.88 69.208 323.88 72.446 L 323.88 123.625 C 323.88 126.863 321.244 129.494 318.006 129.494" fill-opacity="1" fill-rule="nonzero" style=""/>
  <path fill="#000000" d="M 319.094 76.418 L 201.445 76.418 C 201.127 76.418 200.866 76.162 200.866 75.839 C 200.866 75.52 201.127 75.264 201.445 75.264 L 319.094 75.264 C 319.413 75.264 319.674 75.52 319.674 75.839 C 319.674 76.162 319.413 76.418 319.094 76.418" fill-opacity="1" fill-rule="nonzero" style=""/>
  <path fill="#c7ebe6" d="M 206.674 71.221 C 206.674 71.973 206.063 72.579 205.311 72.579 C 204.564 72.579 203.958 71.973 203.958 71.221 C 203.958 70.473 204.564 69.867 205.311 69.867 C 206.063 69.867 206.674 70.473 206.674 71.221" fill-opacity="1" fill-rule="nonzero" style=""/>
  <path fill="#c7ebe6" d="M 212.101 71.221 C 212.101 71.973 211.495 72.579 210.743 72.579 C 209.996 72.579 209.385 71.973 209.385 71.221 C 209.385 70.473 209.996 69.867 210.743 69.867 C 211.495 69.867 212.101 70.473 212.101 71.221" fill-opacity="1" fill-rule="nonzero" style=""/>
  <path fill="#c7ebe6" d="M 217.533 71.221 C 217.533 71.973 216.923 72.579 216.175 72.579 C 215.423 72.579 214.817 71.973 214.817 71.221 C 214.817 70.473 215.423 69.867 216.175 69.867 C 216.923 69.867 217.533 70.473 217.533 71.221" fill-opacity="1" fill-rule="nonzero" style=""/>
  <path fill="#000000" d="M 319.165 71.8 L 311.517 71.8 C 311.194 71.8 310.937 71.544 310.937 71.225 C 310.937 70.902 311.194 70.646 311.517 70.646 L 319.165 70.646 C 319.483 70.646 319.74 70.902 319.74 71.225 C 319.74 71.544 319.483 71.8 319.165 71.8" fill-opacity="1" fill-rule="nonzero" style=""/>
  <path fill="#000000" d="M 308.076 71.8 L 235.859 71.8 C 235.541 71.8 235.28 71.544 235.28 71.221 C 235.28 70.902 235.541 70.646 235.859 70.646 L 308.076 70.646 C 308.398 70.646 308.655 70.902 308.655 71.221 C 308.655 71.544 308.398 71.8 308.076 71.8" fill-opacity="1" fill-rule="nonzero" style=""/>
  <path fill="#000000" d="M 227.53 71.805 L 220.789 71.805 C 220.47 71.805 220.209 71.544 220.209 71.225 C 220.209 70.907 220.47 70.646 220.789 70.646 L 227.53 70.646 C 227.848 70.646 228.109 70.907 228.109 71.225 C 228.109 71.544 227.848 71.805 227.53 71.805" fill-opacity="1" fill-rule="nonzero" style=""/>
  <path fill="#c7ebe6" d="M 240.053 118.701 L 205.249 118.701 L 205.249 83.898 L 240.053 83.898 L 240.053 118.701" fill-opacity="1" fill-rule="nonzero" style=""/>
  <path fill="#c7ebe6" d="M 254.057 91.497 L 246.453 91.497 L 246.453 83.898 L 254.057 83.898 L 254.057 91.497" fill-opacity="1" fill-rule="nonzero" style=""/>
  <path fill="#c7ebe6" d="M 315.662 91.497 L 259.255 91.497 L 259.255 83.898 L 315.662 83.898 L 315.662 91.497" fill-opacity="1" fill-rule="nonzero" style=""/>
  <path fill="#c7ebe6" d="M 254.053 105.099 L 246.453 105.099 L 246.453 97.5 L 254.053 97.5 L 254.053 105.099" fill-opacity="1" fill-rule="nonzero" style=""/>
  <path fill="#c7ebe6" d="M 315.662 105.099 L 259.255 105.099 L 259.255 97.5 L 315.662 97.5 L 315.662 105.099" fill-opacity="1" fill-rule="nonzero" style=""/>
  <path fill="#c7ebe6" d="M 254.053 118.701 L 246.453 118.701 L 246.453 111.102 L 254.053 111.102 L 254.053 118.701" fill-opacity="1" fill-rule="nonzero" style=""/>
  <path fill="#c7ebe6" d="M 315.662 118.701 L 259.255 118.701 L 259.255 111.102 L 315.662 111.102 L 315.662 118.701" fill-opacity="1" fill-rule="nonzero" style=""/>
  <path fill="#075e54" d="M 303.245 51.51 L 187.764 51.51 C 184.84 51.51 182.469 53.881 182.469 56.805 L 182.469 107.979 C 182.469 110.907 184.84 113.274 187.764 113.274 L 303.245 113.274 C 306.169 113.274 308.54 110.907 308.54 107.979 L 308.54 56.805 C 308.54 53.881 306.169 51.51 303.245 51.51" fill-opacity="1" fill-rule="nonzero" style=""/>
  <path fill="#000000" d="M 187.764 52.085 C 185.163 52.085 183.048 54.204 183.048 56.805 L 183.048 107.979 C 183.048 110.58 185.163 112.699 187.764 112.699 L 303.245 112.699 C 305.846 112.699 307.961 110.58 307.961 107.979 L 307.961 56.805 C 307.961 54.204 305.846 52.085 303.245 52.085 Z M 303.245 113.853 L 187.764 113.853 C 184.526 113.853 181.894 111.217 181.894 107.979 L 181.894 56.805 C 181.894 53.567 184.526 50.931 187.764 50.931 L 303.245 50.931 C 306.483 50.931 309.119 53.567 309.119 56.805 L 309.119 107.979 C 309.119 111.217 306.483 113.853 303.245 113.853" fill-opacity="1" fill-rule="nonzero" style=""/>
  <path fill="#ffffff" d="M 304.329 60.773 L 186.68 60.773 C 186.361 60.773 186.1 60.516 186.1 60.198 C 186.1 59.879 186.361 59.618 186.68 59.618 L 304.329 59.618 C 304.652 59.618 304.908 59.879 304.908 60.198 C 304.908 60.516 304.652 60.773 304.329 60.773" fill-opacity="1" fill-rule="nonzero" style=""/>
  <path fill="#ffffff" d="M 191.908 55.58 C 191.908 56.331 191.298 56.938 190.55 56.938 C 189.798 56.938 189.192 56.331 189.192 55.58 C 189.192 54.828 189.798 54.222 190.55 54.222 C 191.298 54.222 191.908 54.828 191.908 55.58" fill-opacity="1" fill-rule="nonzero" style=""/>
  <path fill="#ffffff" d="M 197.336 55.58 C 197.336 56.331 196.73 56.938 195.978 56.938 C 195.23 56.938 194.62 56.331 194.62 55.58 C 194.62 54.828 195.23 54.222 195.978 54.222 C 196.73 54.222 197.336 54.828 197.336 55.58" fill-opacity="1" fill-rule="nonzero" style=""/>
  <path fill="#ffffff" d="M 202.768 55.58 C 202.768 56.331 202.162 56.938 201.41 56.938 C 200.658 56.938 200.052 56.331 200.052 55.58 C 200.052 54.828 200.658 54.222 201.41 54.222 C 202.162 54.222 202.768 54.828 202.768 55.58" fill-opacity="1" fill-rule="nonzero" style=""/>
  <path fill="#ffffff" d="M 304.395 56.159 L 296.747 56.159 C 296.433 56.159 296.172 55.902 296.172 55.584 C 296.172 55.261 296.433 55.004 296.747 55.004 L 304.395 55.004 C 304.718 55.004 304.975 55.261 304.975 55.584 C 304.975 55.902 304.718 56.159 304.395 56.159" fill-opacity="1" fill-rule="nonzero" style=""/>
  <path fill="#ffffff" d="M 293.31 56.159 L 221.094 56.159 C 220.771 56.159 220.514 55.902 220.514 55.584 C 220.514 55.261 220.771 55.004 221.094 55.004 L 293.31 55.004 C 293.629 55.004 293.89 55.261 293.89 55.584 C 293.89 55.902 293.629 56.159 293.31 56.159" fill-opacity="1" fill-rule="nonzero" style=""/>
  <path fill="#ffffff" d="M 212.765 56.159 L 206.023 56.159 C 205.705 56.159 205.444 55.902 205.444 55.584 C 205.444 55.261 205.705 55.004 206.023 55.004 L 212.765 55.004 C 213.083 55.004 213.344 55.261 213.344 55.584 C 213.344 55.902 213.083 56.159 212.765 56.159" fill-opacity="1" fill-rule="nonzero" style=""/>
  <path fill="#ffffff" d="M 225.287 103.06 L 190.484 103.06 L 190.484 68.257 L 225.287 68.257 L 225.287 103.06" fill-opacity="1" fill-rule="nonzero" style=""/>
  <path fill="#c7ebe6" d="M 239.292 75.856 L 231.688 75.856 L 231.688 68.257 L 239.292 68.257 L 239.292 75.856" fill-opacity="1" fill-rule="nonzero" style=""/>
  <path fill="#ffffff" d="M 300.896 75.856 L 244.494 75.856 L 244.494 68.257 L 300.896 68.257 L 300.896 75.856" fill-opacity="1" fill-rule="nonzero" style=""/>
  <path fill="#c7ebe6" d="M 239.292 89.458 L 231.688 89.458 L 231.688 81.859 L 239.292 81.859 L 239.292 89.458" fill-opacity="1" fill-rule="nonzero" style=""/>
  <path fill="#ffffff" d="M 300.896 89.458 L 244.489 89.458 L 244.489 81.859 L 300.896 81.859 L 300.896 89.458" fill-opacity="1" fill-rule="nonzero" style=""/>
  <path fill="#c7ebe6" d="M 239.292 103.06 L 231.688 103.06 L 231.688 95.456 L 239.292 95.456 L 239.292 103.06" fill-opacity="1" fill-rule="nonzero" style=""/>
  <path fill="#ffffff" d="M 300.896 103.06 L 244.489 103.06 L 244.489 95.456 L 300.896 95.456 L 300.896 103.06" fill-opacity="1" fill-rule="nonzero" style=""/>
  <path fill="#000000" d="M 127.866 158.269 C 124.089 161.206 118.502 165.554 110.567 165.39 C 109.306 165.364 99.061 164.997 94.346 157.335 C 93.727 156.331 90.9 151.74 92.484 147.471 C 94.169 142.919 99.349 142.791 99.596 139.85 C 99.924 135.939 90.9 135.01 89.241 129.433 C 87.454 123.412 94.89 114.159 103.255 109.766 C 113.331 104.48 122.7 107.32 124.854 102.083 C 126.101 99.048 123.306 97.226 124.699 93.09 C 126.186 88.68 131.626 84.022 136.435 85.641 C 139.496 86.676 141.933 90.135 141.65 93.276 C 141.296 97.124 137.12 97.708 134.758 101.101 C 128.733 109.748 144.578 122.253 141.605 138.607 C 139.708 149.064 131.078 155.774 127.866 158.269" fill-opacity="1" fill-rule="nonzero" style=""/>
  <path fill="#075e54" d="M 144.467 113.15 C 144.467 113.15 149.267 114.862 155.19 122.528 C 161.113 130.189 174.44 130.622 178.749 125.354 C 183.057 120.086 182.584 118.631 182.584 118.631 L 184.163 123.147 C 184.163 123.147 182.898 145.892 162.378 142.389 C 158.149 141.668 152.089 140.323 149.599 138.138 C 140 129.702 144.467 113.15 144.467 113.15" fill-opacity="1" fill-rule="nonzero" style=""/>
  <path fill="#075e54" d="M 153.283 147.807 C 148.67 129.012 154.513 121.099 147.9 115.287 C 141.853 109.97 131.379 111.695 126.845 112.438 C 121.7 113.283 117.44 113.982 114.543 117.246 C 113.773 118.113 113.225 119.02 112.853 119.984 L 112.853 119.98 C 107.315 130.406 111.805 141.163 114.57 146.14 C 115.025 166.072 107.134 172.061 112.331 179.443 C 117.958 187.437 131.865 187.034 139.168 185.442 C 141.734 184.884 156.097 181.43 159.374 171.079 C 161.528 164.289 156.672 161.617 153.283 147.807" fill-opacity="1" fill-rule="nonzero" style=""/>
  <path fill="#ffffff" d="M 147.551 141.619 C 147.551 141.619 159.396 137.297 163.099 129.406 L 170.725 122.298 C 170.725 122.298 170.614 125.735 168.349 127.168 C 168.349 127.168 170.296 131.082 167.425 133.781 C 167.425 133.781 165.275 135.493 163.992 135.524 C 163.992 135.524 160.237 147.86 150.098 151.532 C 150.098 151.532 147.25 147.201 147.551 141.619" fill-opacity="1" fill-rule="nonzero" style=""/>
  <path fill="#000000" d="M 148.112 142.022 C 147.993 146.233 149.709 149.687 150.346 150.82 C 159.759 147.095 163.404 135.475 163.439 135.355 C 163.51 135.117 163.731 134.953 163.979 134.948 C 164.766 134.926 166.266 133.962 167.049 133.347 C 169.535 130.976 167.903 127.566 167.832 127.42 C 167.704 127.159 167.792 126.836 168.04 126.677 C 169.084 126.018 169.61 124.841 169.88 123.872 L 163.572 129.751 C 160.095 137.014 150.178 141.212 148.112 142.022 Z M 150.098 152.111 C 149.908 152.111 149.722 152.014 149.616 151.85 C 149.497 151.669 146.666 147.299 146.975 141.588 C 146.989 141.354 147.135 141.155 147.351 141.075 C 147.471 141.031 159.02 136.744 162.572 129.158 C 162.603 129.092 162.648 129.03 162.701 128.981 L 170.327 121.877 C 170.499 121.718 170.747 121.674 170.964 121.771 C 171.171 121.869 171.309 122.085 171.3 122.315 C 171.295 122.461 171.171 125.681 169.057 127.371 C 169.495 128.561 170.358 131.812 167.823 134.205 C 167.81 134.214 167.796 134.223 167.788 134.236 C 167.571 134.404 165.824 135.767 164.43 136.05 C 163.709 138.169 159.728 148.657 150.293 152.076 C 150.231 152.098 150.165 152.111 150.098 152.111" fill-opacity="1" fill-rule="nonzero" style=""/>
  <path fill="#000000" d="M 136.877 155.677 C 126.915 155.677 121.183 150.731 121.107 150.665 C 120.869 150.453 120.846 150.09 121.059 149.846 C 121.271 149.608 121.634 149.59 121.873 149.798 C 121.974 149.886 131.967 158.463 148.612 152.288 C 148.908 152.178 149.24 152.332 149.351 152.629 C 149.461 152.93 149.311 153.261 149.01 153.372 C 144.476 155.053 140.411 155.677 136.877 155.677" fill-opacity="1" fill-rule="nonzero" style=""/>
  <path fill="#000000" d="M 142.928 142.322 C 134.227 142.322 129.162 137.368 126.389 133.002 C 123.138 127.884 122.297 122.607 122.266 122.386 C 122.218 122.068 122.43 121.776 122.749 121.727 C 123.063 121.678 123.359 121.895 123.408 122.209 C 123.412 122.262 124.252 127.495 127.384 132.409 C 131.533 138.925 137.558 141.827 145.29 141.044 C 145.604 141.009 145.887 141.243 145.923 141.557 C 145.954 141.876 145.724 142.159 145.405 142.194 C 144.547 142.278 143.72 142.322 142.928 142.322" fill-opacity="1" fill-rule="nonzero" style=""/>
  <path fill="#ffffff" d="M 178.474 112.69 L 168.787 147.179 L 180.147 143.897 L 190.816 109.912 L 178.474 112.69" fill-opacity="1" fill-rule="nonzero" style=""/>
  <path fill="#000000" d="M 178.935 113.181 L 169.623 146.339 L 179.686 143.433 L 189.962 110.695 Z M 168.787 147.759 C 168.637 147.759 168.486 147.701 168.38 147.591 C 168.23 147.445 168.172 147.228 168.23 147.024 L 177.917 112.535 C 177.975 112.332 178.138 112.172 178.346 112.128 L 190.687 109.35 C 190.887 109.306 191.099 109.372 191.236 109.523 C 191.382 109.673 191.426 109.89 191.364 110.085 L 180.695 144.07 C 180.638 144.255 180.492 144.401 180.306 144.454 L 168.946 147.737 C 168.893 147.75 168.84 147.759 168.787 147.759" fill-opacity="1" fill-rule="nonzero" style=""/>
  <path fill="#ffffff" d="M 184.632 129.76 C 184.632 129.76 187.547 126.69 188.219 124.257 C 188.896 121.824 184.632 116.468 184.632 116.468 L 184.632 129.76" fill-opacity="1" fill-rule="nonzero" style=""/>
  <path fill="#000000" d="M 185.207 118.219 L 185.207 128.212 C 186.083 127.137 187.277 125.487 187.662 124.102 C 188.011 122.855 186.596 120.236 185.207 118.219 Z M 184.632 130.339 C 184.557 130.339 184.486 130.326 184.415 130.295 C 184.198 130.211 184.052 129.999 184.052 129.76 L 184.052 116.468 C 184.052 116.22 184.207 116.003 184.442 115.923 C 184.672 115.839 184.928 115.915 185.083 116.105 C 185.539 116.68 189.511 121.771 188.777 124.412 C 188.069 126.955 185.171 130.03 185.048 130.158 C 184.937 130.273 184.787 130.339 184.632 130.339" fill-opacity="1" fill-rule="nonzero" style=""/>
  <path fill="#000000" d="M 149.603 136.103 C 149.572 136.103 149.545 136.099 149.515 136.094 C 149.2 136.05 148.984 135.754 149.028 135.439 C 150.567 124.943 145.786 119.055 145.737 118.998 C 145.533 118.754 145.569 118.392 145.812 118.188 C 146.055 117.98 146.423 118.016 146.626 118.259 C 146.838 118.511 151.784 124.602 150.174 135.608 C 150.129 135.895 149.882 136.103 149.603 136.103" fill-opacity="1" fill-rule="nonzero" style=""/>
  <path fill="#075e54" d="M 149.284 227.579 C 149.284 229.813 144.556 227.712 138.023 229.154 C 128.503 231.255 124.376 227.495 124.376 225.257 C 124.376 223.023 130.861 223.531 137.585 223.531 C 144.308 223.531 149.284 225.341 149.284 227.579" fill-opacity="1" fill-rule="nonzero" style=""/>
  <path fill="#ffffff" d="M 144.118 221.643 L 115.313 259.901 L 110.717 255.835 C 110.717 255.835 122.669 224.841 133.17 221.837 L 140.986 217.069 L 144.118 221.643" fill-opacity="1" fill-rule="nonzero" style=""/>
  <path fill="#000000" d="M 111.403 255.672 L 115.229 259.051 L 143.406 221.625 L 140.818 217.847 L 133.471 222.328 C 133.427 222.355 133.382 222.381 133.329 222.395 C 123.832 225.111 112.8 252.16 111.403 255.672 Z M 115.313 260.476 C 115.171 260.476 115.034 260.427 114.928 260.334 L 110.336 256.269 C 110.155 256.11 110.093 255.853 110.182 255.628 C 110.673 254.354 122.297 224.474 132.936 221.302 L 140.685 216.578 C 140.946 216.419 141.291 216.489 141.464 216.742 L 144.591 221.315 C 144.733 221.519 144.728 221.793 144.578 221.988 L 115.773 260.246 C 115.676 260.374 115.53 260.458 115.37 260.476 C 115.353 260.476 115.331 260.476 115.313 260.476" fill-opacity="1" fill-rule="nonzero" style=""/>
  <path fill="#ffffff" d="M 134.32 217.339 C 134.32 217.339 129.211 228.172 130.644 240.044 C 132.073 251.921 138 272.618 138 272.618 L 145.361 272.618 L 143.631 215.954 L 134.32 217.339" fill-opacity="1" fill-rule="nonzero" style=""/>
  <path fill="#000000" d="M 138.438 272.043 L 144.768 272.043 L 143.074 216.622 L 134.718 217.861 C 133.953 219.621 129.95 229.45 131.215 239.973 C 132.515 250.744 137.598 269.048 138.438 272.043 Z M 145.361 273.197 L 138.005 273.197 C 137.744 273.197 137.518 273.025 137.447 272.777 C 137.39 272.569 131.489 251.899 130.069 240.115 C 128.636 228.211 133.75 217.197 133.803 217.091 C 133.882 216.914 134.046 216.795 134.236 216.764 L 143.547 215.379 C 143.707 215.357 143.875 215.401 144.003 215.512 C 144.127 215.614 144.202 215.768 144.206 215.932 L 145.94 272.605 C 145.945 272.759 145.887 272.91 145.777 273.02 C 145.666 273.135 145.516 273.197 145.361 273.197" fill-opacity="1" fill-rule="nonzero" style=""/>
  <path fill="#000000" d="M 161.152 277.833 C 158.989 275.175 151.421 271.264 144.596 268.455 L 141.163 268.774 C 140.208 268.858 139.562 269.782 139.801 270.707 L 140.177 272.149 L 137.62 270.181 C 136.895 269.619 135.833 270.012 135.647 270.91 C 135.258 272.786 134.811 275.763 135.112 278.536 C 135.2 279.346 135.749 280.027 136.523 280.288 C 139.128 281.173 149.453 283.066 159.618 281.726 C 161.475 281.482 162.338 279.288 161.152 277.833" fill-opacity="1" fill-rule="nonzero" style=""/>
  <path fill="#ffffff" d="M 152.474 280.474 C 142.273 280.474 135.974 278.116 135.652 277.997 C 135.355 277.882 135.209 277.545 135.32 277.249 C 135.435 276.953 135.771 276.802 136.067 276.913 C 136.16 276.953 145.613 280.483 159.887 278.908 C 160.201 278.873 160.489 279.103 160.524 279.417 C 160.555 279.735 160.33 280.018 160.011 280.054 C 157.313 280.354 154.792 280.474 152.474 280.474" fill-opacity="1" fill-rule="nonzero" style=""/>
  <path fill="#ffffff" d="M 147.635 275.988 C 147.599 275.988 147.559 275.988 147.524 275.98 C 147.21 275.918 147.006 275.612 147.068 275.303 C 147.095 275.161 147.772 271.795 150.129 270.53 C 150.412 270.38 150.762 270.486 150.912 270.769 C 151.063 271.048 150.957 271.397 150.678 271.547 C 148.802 272.551 148.205 275.493 148.201 275.524 C 148.148 275.798 147.904 275.988 147.635 275.988" fill-opacity="1" fill-rule="nonzero" style=""/>
  <path fill="#ffffff" d="M 152.014 277.2 C 152.009 277.2 152 277.2 151.992 277.2 C 151.673 277.187 151.425 276.917 151.439 276.599 C 151.549 273.542 153.5 272.348 153.58 272.299 C 153.854 272.136 154.212 272.224 154.371 272.498 C 154.535 272.773 154.447 273.127 154.177 273.29 C 154.106 273.334 152.682 274.25 152.589 276.643 C 152.58 276.953 152.323 277.2 152.014 277.2" fill-opacity="1" fill-rule="nonzero" style=""/>
  <path fill="#000000" d="M 118.188 256.919 L 115.786 255.123 C 115.061 254.584 114.026 254.823 113.61 255.623 L 113.035 256.729 L 112.526 253.929 C 112.376 253.102 111.411 252.717 110.735 253.217 C 109.354 254.234 107.293 255.933 105.842 257.945 C 105.418 258.534 105.373 259.317 105.732 259.954 C 106.935 262.099 112.668 269.544 120.227 274.741 C 121.612 275.692 123.501 274.75 123.585 273.073 C 123.739 270.008 121.046 262.873 118.188 256.919" fill-opacity="1" fill-rule="nonzero" style=""/>
  <path fill="#ffffff" d="M 121.793 274.024 C 121.678 274.024 121.559 273.989 121.457 273.918 C 110.797 266.248 106.647 258.268 106.475 257.937 C 106.329 257.649 106.439 257.304 106.727 257.158 C 107.01 257.012 107.36 257.123 107.501 257.41 C 107.545 257.49 111.712 265.487 122.134 272.976 C 122.39 273.166 122.448 273.525 122.262 273.786 C 122.151 273.94 121.974 274.024 121.793 274.024" fill-opacity="1" fill-rule="nonzero" style=""/>
  <path fill="#ffffff" d="M 116.043 263.944 C 115.866 263.944 115.693 263.864 115.583 263.714 C 115.388 263.457 115.441 263.094 115.693 262.904 C 115.799 262.824 118.285 260.98 120.639 261.555 C 120.948 261.63 121.138 261.944 121.063 262.254 C 120.988 262.563 120.674 262.754 120.364 262.678 C 118.537 262.227 116.41 263.811 116.388 263.829 C 116.286 263.904 116.162 263.944 116.043 263.944" fill-opacity="1" fill-rule="nonzero" style=""/>
  <path fill="#ffffff" d="M 118.228 267.372 C 118.086 267.372 117.94 267.319 117.83 267.208 C 117.6 266.987 117.595 266.62 117.816 266.39 C 119.745 264.404 121.789 264.78 121.873 264.797 C 122.187 264.859 122.39 265.164 122.328 265.478 C 122.266 265.788 121.966 265.992 121.652 265.93 C 121.581 265.921 120.112 265.682 118.644 267.195 C 118.533 267.31 118.383 267.372 118.228 267.372" fill-opacity="1" fill-rule="nonzero" style=""/>
  <path fill="#000000" d="M 124.376 225.257 C 126.159 213.061 123.231 193.382 120.329 173.742 C 120.329 173.742 133.082 158.49 144.507 159.37 C 151.894 159.941 151.417 173.742 151.417 173.742 L 149.284 227.579 C 149.284 227.579 139.774 223.102 124.376 225.257" fill-opacity="1" fill-rule="nonzero" style=""/>
  <path fill="#000000" d="M 117.423 183.455 C 117.184 183.455 116.963 183.305 116.879 183.066 C 116.812 182.867 115.282 178.169 119.909 173.344 C 120.13 173.114 120.497 173.1 120.727 173.326 C 120.957 173.543 120.966 173.91 120.745 174.14 C 116.622 178.439 117.914 182.527 117.971 182.695 C 118.073 183 117.909 183.327 117.609 183.429 C 117.547 183.447 117.485 183.455 117.423 183.455" fill-opacity="1" fill-rule="nonzero" style=""/>
  <path fill="#ffffff" d="M 140.566 100.765 C 139.018 99.168 136.05 94.103 136.05 94.275 C 136.089 95.947 132.608 96.425 130.268 97.96 C 127.928 99.495 131.14 102.366 131.14 102.366 C 131.14 102.366 128.813 100.521 128.433 102.989 C 128.207 104.423 129.897 104.861 131.25 104.967 C 131.206 105.396 131.153 105.927 131.091 106.51 C 130.808 109.275 128.932 111.62 126.296 112.5 L 138.217 117.414 L 139.146 112.818 L 137.93 112.318 C 137.063 111.96 136.448 111.177 136.311 110.248 L 136.023 106.966 C 136.607 107.116 137.31 107.267 137.854 107.262 C 138.943 107.254 139.792 106.528 139.995 105.458 C 140.274 103.994 140.217 102.613 139.841 101.499 L 140.566 100.765" fill-opacity="1" fill-rule="nonzero" style=""/>
  <path fill="#000000" d="M 127.765 112.482 L 137.788 116.614 L 138.483 113.172 L 137.708 112.854 C 136.66 112.42 135.904 111.456 135.736 110.337 L 135.444 107.019 C 135.426 106.829 135.506 106.643 135.647 106.524 C 135.793 106.404 135.988 106.36 136.169 106.409 C 137.058 106.643 137.571 106.696 137.85 106.687 C 138.655 106.679 139.274 106.157 139.425 105.356 C 139.686 103.989 139.641 102.72 139.292 101.685 C 139.221 101.477 139.274 101.247 139.429 101.092 L 139.77 100.747 C 138.673 99.446 137.195 97.111 136.271 95.655 C 136.235 95.598 136.2 95.545 136.165 95.487 C 135.563 96.177 134.448 96.642 133.289 97.124 C 132.356 97.509 131.396 97.911 130.587 98.447 C 130.091 98.77 130.012 99.097 129.994 99.314 C 129.923 100.274 131.073 101.534 131.525 101.941 C 131.755 102.149 131.777 102.503 131.578 102.742 C 131.379 102.981 131.02 103.016 130.777 102.821 C 130.414 102.538 129.724 102.18 129.379 102.313 C 129.14 102.406 129.039 102.835 128.999 103.082 C 128.955 103.392 129.052 103.565 129.131 103.662 C 129.432 104.042 130.22 104.308 131.295 104.392 C 131.449 104.405 131.591 104.48 131.693 104.6 C 131.79 104.719 131.839 104.874 131.821 105.029 L 131.666 106.572 C 131.405 109.08 129.923 111.283 127.765 112.482 Z M 138.217 117.994 C 138.142 117.994 138.067 117.98 137.996 117.949 L 126.075 113.035 C 125.854 112.947 125.712 112.725 125.717 112.482 C 125.725 112.243 125.885 112.031 126.11 111.956 C 128.525 111.146 130.255 108.983 130.516 106.453 L 130.618 105.48 C 129.477 105.312 128.671 104.945 128.225 104.378 C 127.897 103.967 127.774 103.458 127.858 102.905 C 127.995 102.03 128.366 101.468 128.959 101.238 C 129.101 101.18 129.242 101.149 129.384 101.136 C 129.047 100.565 128.791 99.898 128.844 99.23 C 128.879 98.739 129.101 98.035 129.95 97.478 C 130.852 96.89 131.909 96.447 132.843 96.058 C 134.205 95.492 135.488 94.957 135.475 94.289 C 135.466 94.032 135.638 93.793 135.886 93.718 C 136.328 93.585 136.364 93.643 137.248 95.036 C 138.191 96.527 139.947 99.3 140.977 100.371 C 141.199 100.592 141.194 100.955 140.973 101.176 L 140.491 101.662 C 140.805 102.813 140.831 104.153 140.562 105.568 C 140.305 106.913 139.221 107.829 137.859 107.842 C 137.536 107.846 137.133 107.802 136.665 107.709 L 136.881 110.2 C 136.987 110.885 137.474 111.509 138.151 111.788 L 139.363 112.287 C 139.619 112.389 139.765 112.663 139.712 112.933 L 138.783 117.529 C 138.748 117.697 138.642 117.843 138.491 117.923 C 138.403 117.967 138.31 117.994 138.217 117.994" fill-opacity="1" fill-rule="nonzero" style=""/>
  <path fill="#ffffff" d="M 135.152 106.67 L 136.019 106.966 L 135.152 106.67" fill-opacity="1" fill-rule="nonzero" style=""/>
  <path fill="#000000" d="M 136.019 107.546 C 135.957 107.546 135.895 107.532 135.833 107.515 L 134.962 107.218 C 134.661 107.112 134.501 106.785 134.603 106.484 C 134.705 106.183 135.037 106.019 135.338 106.121 L 136.205 106.422 C 136.51 106.524 136.669 106.851 136.567 107.152 C 136.483 107.391 136.262 107.546 136.019 107.546" fill-opacity="1" fill-rule="nonzero" style=""/>
  <path fill="#ffffff" d="M 104.838 316.816 L 110.022 330.878 L 116.105 332.152 L 112.141 315.596 L 104.838 316.816" fill-opacity="1" fill-rule="nonzero" style=""/>
  <path fill="#000000" d="M 110.451 330.383 L 115.331 331.4 L 111.703 316.255 L 105.621 317.268 Z M 116.105 332.732 C 116.065 332.732 116.025 332.727 115.985 332.719 L 109.903 331.445 C 109.708 331.405 109.549 331.268 109.478 331.077 L 104.294 317.015 C 104.237 316.856 104.25 316.675 104.338 316.524 C 104.422 316.378 104.573 316.277 104.741 316.246 L 112.048 315.025 C 112.345 314.972 112.632 315.166 112.703 315.458 L 116.666 332.02 C 116.711 332.21 116.658 332.413 116.52 332.559 C 116.41 332.67 116.259 332.732 116.105 332.732" fill-opacity="1" fill-rule="nonzero" style=""/>
  <path fill="#ffffff" d="M 65.213 314.198 L 67.969 329.963 L 72.286 329.963 L 74.41 316.206 L 65.213 314.198" fill-opacity="1" fill-rule="nonzero" style=""/>
  <path fill="#000000" d="M 68.456 329.383 L 71.791 329.383 L 73.755 316.653 L 65.93 314.945 Z M 72.286 330.538 L 67.969 330.538 C 67.691 330.538 67.452 330.339 67.403 330.06 L 64.643 314.299 C 64.612 314.109 64.674 313.915 64.811 313.782 C 64.952 313.649 65.147 313.592 65.333 313.636 L 74.534 315.64 C 74.83 315.706 75.025 315.989 74.98 316.29 L 72.857 330.051 C 72.817 330.334 72.574 330.538 72.286 330.538" fill-opacity="1" fill-rule="nonzero" style=""/>
  <path fill="#075e54" d="M 72.671 338.964 C 70.84 339.159 67.845 339.287 64.351 338.686 C 63.21 338.491 62.484 337.35 62.798 336.231 C 63.674 333.117 65.563 327.216 67.938 324.535 L 68.456 326.048 L 69.283 324.663 C 69.398 324.473 69.597 324.349 69.814 324.332 L 71.539 324.168 C 71.902 324.137 72.225 324.385 72.286 324.739 L 72.516 326.048 L 73.171 324.363 L 74.401 336.832 C 74.503 337.894 73.733 338.849 72.671 338.964" fill-opacity="1" fill-rule="nonzero" style=""/>
  <path fill="#000000" d="M 67.735 325.725 C 65.749 328.556 64.165 333.51 63.356 336.39 C 63.245 336.766 63.303 337.16 63.515 337.491 C 63.727 337.828 64.059 338.049 64.453 338.119 C 67.845 338.703 70.76 338.588 72.609 338.389 C 73.352 338.31 73.897 337.637 73.826 336.885 L 72.808 326.548 C 72.707 326.61 72.583 326.636 72.463 326.623 C 72.202 326.597 71.994 326.402 71.95 326.15 L 71.72 324.84 C 71.707 324.783 71.654 324.739 71.592 324.748 L 69.871 324.907 C 69.831 324.911 69.8 324.929 69.778 324.96 L 68.951 326.344 C 68.836 326.539 68.615 326.645 68.394 326.623 C 68.168 326.601 67.982 326.451 67.907 326.238 Z M 72.671 338.964 L 72.676 338.964 Z M 69.544 339.703 C 68.005 339.703 66.204 339.592 64.254 339.256 C 63.546 339.132 62.922 338.717 62.537 338.111 C 62.157 337.505 62.046 336.761 62.241 336.076 C 63.161 332.803 65.072 326.902 67.505 324.15 C 67.642 323.996 67.85 323.925 68.049 323.969 C 68.252 324.009 68.416 324.155 68.482 324.345 L 68.597 324.686 L 68.792 324.367 C 68.995 324.022 69.358 323.792 69.761 323.757 L 71.486 323.597 C 71.95 323.553 72.388 323.77 72.645 324.133 C 72.746 323.894 72.994 323.757 73.251 323.792 C 73.516 323.827 73.724 324.04 73.746 324.31 L 74.976 336.775 C 75.109 338.15 74.104 339.393 72.733 339.539 C 71.875 339.632 70.791 339.703 69.544 339.703" fill-opacity="1" fill-rule="nonzero" style=""/>
  <path fill="#000000" d="M 68.323 338.208 C 66.952 338.208 65.421 338.071 63.904 337.673 C 63.594 337.593 63.409 337.275 63.488 336.969 C 63.572 336.66 63.886 336.474 64.196 336.554 C 68.372 337.655 72.813 336.567 72.857 336.554 C 73.167 336.478 73.481 336.664 73.556 336.974 C 73.636 337.283 73.445 337.598 73.136 337.677 C 73.012 337.708 70.973 338.208 68.323 338.208" fill-opacity="1" fill-rule="nonzero" style=""/>
  <path fill="#000000" d="M 90.17 213.663 C 89.909 212.539 88.91 211.747 87.759 211.747 L 72.999 211.747 C 72.999 211.747 72.999 211.77 72.994 211.814 C 68.925 211.982 64.523 212.517 60.892 213.804 C 58.702 214.578 57.194 216.591 57.061 218.913 C 56.278 232.94 54.031 287.334 64.05 318.316 L 76.869 318.595 L 78.231 254.553 C 84.146 273.467 94.182 303.856 103.728 319.838 L 114.853 319.838 L 90.17 213.663" fill-opacity="1" fill-rule="nonzero" style=""/>
  <path fill="#000000" d="M 70.884 333.351 L 66.779 333.351 C 66.461 333.351 66.204 333.094 66.204 332.776 C 66.204 332.458 66.461 332.197 66.779 332.197 L 70.884 332.197 C 71.203 332.197 71.459 332.458 71.459 332.776 C 71.459 333.094 71.203 333.351 70.884 333.351" fill-opacity="1" fill-rule="nonzero" style=""/>
  <path fill="#075e54" d="M 107.152 338.464 C 107.152 338.464 106.373 331.502 108.554 328.326 L 113.42 330.06 L 113.42 329.016 C 113.42 328.684 113.658 328.406 113.964 328.388 L 116.68 328.233 C 117.693 328.176 118.701 328.388 119.626 328.839 C 122.877 330.44 130.361 334.559 130.122 338.509 C 130.122 338.509 124.23 339.973 107.152 338.464" fill-opacity="1" fill-rule="nonzero" style=""/>
  <path fill="#000000" d="M 107.682 337.929 C 121.594 339.128 127.897 338.323 129.534 338.035 C 129.154 334.444 121.718 330.516 119.369 329.357 C 118.537 328.95 117.617 328.76 116.711 328.808 L 113.999 328.967 C 114.008 328.967 113.999 328.985 113.999 329.016 L 113.999 330.06 C 113.999 330.246 113.906 330.423 113.751 330.529 C 113.601 330.64 113.402 330.666 113.225 330.604 L 108.797 329.025 C 107.333 331.644 107.567 336.421 107.682 337.929 Z M 120.957 339.73 C 117.507 339.73 112.96 339.557 107.099 339.04 C 106.824 339.013 106.608 338.801 106.577 338.526 C 106.546 338.234 105.803 331.316 108.076 327.999 C 108.227 327.782 108.501 327.694 108.744 327.782 L 112.84 329.242 L 112.84 329.016 C 112.84 328.379 113.322 327.848 113.933 327.813 L 116.644 327.658 C 117.75 327.596 118.869 327.826 119.882 328.322 C 124.027 330.361 130.95 334.404 130.702 338.544 C 130.684 338.796 130.507 339.009 130.264 339.07 C 130.105 339.11 127.499 339.73 120.957 339.73" fill-opacity="1" fill-rule="nonzero" style=""/>
  <path fill="#000000" d="M 115.441 337.584 C 113.132 337.584 110.651 337.474 108.12 337.177 C 107.806 337.142 107.576 336.854 107.616 336.536 C 107.651 336.222 107.939 335.996 108.253 336.032 C 118.573 337.226 128.034 335.346 128.127 335.328 C 128.441 335.266 128.747 335.47 128.809 335.779 C 128.875 336.094 128.671 336.399 128.357 336.461 C 128.287 336.478 122.713 337.584 115.441 337.584" fill-opacity="1" fill-rule="nonzero" style=""/>
  <path fill="#000000" d="M 121.227 333.908 C 121.107 333.908 120.992 333.873 120.891 333.802 L 116.202 330.432 C 115.945 330.246 115.883 329.883 116.069 329.627 C 116.255 329.366 116.618 329.308 116.879 329.494 L 121.563 332.864 C 121.824 333.05 121.882 333.409 121.696 333.67 C 121.581 333.824 121.404 333.908 121.227 333.908" fill-opacity="1" fill-rule="nonzero" style=""/>
  <path fill="#ffffff" d="M 78.612 251.713 C 78.293 251.713 78.037 251.456 78.037 251.138 L 78.037 236.514 C 78.037 236.306 78.147 236.116 78.324 236.014 L 84.292 232.524 C 84.566 232.361 84.92 232.453 85.079 232.728 C 85.243 233.006 85.15 233.36 84.875 233.519 L 79.191 236.846 L 79.191 251.138 C 79.191 251.456 78.935 251.713 78.612 251.713" fill-opacity="1" fill-rule="nonzero" style=""/>
  <path fill="#ffffff" d="M 58.211 236.492 C 58.025 236.492 57.844 236.403 57.729 236.235 C 57.552 235.974 57.623 235.616 57.888 235.435 C 65.032 230.658 65.572 219.152 65.576 219.037 C 65.589 218.719 65.85 218.471 66.173 218.484 C 66.492 218.498 66.744 218.763 66.731 219.086 C 66.709 219.581 66.164 231.286 58.534 236.395 C 58.432 236.461 58.322 236.492 58.211 236.492" fill-opacity="1" fill-rule="nonzero" style=""/>
  <path fill="#075e54" d="M 105.267 178.479 C 99.623 170.995 96.801 167.257 93.28 165.169 C 84.933 160.233 76.007 161.392 68.429 162.374 C 60.963 163.342 52.492 164.444 44.574 170.663 C 43.539 171.472 26.827 185.061 30.162 205.028 C 31.308 211.889 34.599 218.148 39.39 223.155 C 42.344 218.843 46.003 216.251 48.175 214.981 C 48.166 214.959 48.157 214.941 48.148 214.923 C 45.078 207.059 46.719 198.013 52.381 191.51 C 52.452 199.61 52.523 207.713 52.593 215.817 C 54.031 217.396 56.362 219.444 59.622 220.205 C 67.036 221.939 71.787 215.251 80.819 214.609 C 84.203 214.366 89.069 214.91 95.191 218.657 C 94.089 211.203 92.988 203.75 91.887 196.301 C 92.139 197.34 93.629 203.078 99.11 205.926 C 100.202 206.492 104.542 208.753 108.775 206.838 C 113.583 204.67 114.596 198.778 114.711 198.048 C 115.609 192.324 112.177 187.631 105.267 178.479" fill-opacity="1" fill-rule="nonzero" style=""/>
  <path fill="#ffffff" d="M 62.723 228.318 C 59.229 227.136 51.523 223.62 48.121 214.923 C 45.95 216.189 42.283 218.772 39.319 223.076 C 44.348 228.353 51.045 232.241 58.667 233.984 C 60.467 232.387 61.776 230.374 62.723 228.318" fill-opacity="1" fill-rule="nonzero" style=""/>
  <path fill="#000000" d="M 40.066 223.018 C 45.038 228.105 51.399 231.67 58.503 233.356 C 59.835 232.117 60.985 230.538 61.927 228.649 C 58.397 227.344 51.275 223.819 47.843 215.768 C 45.866 216.989 42.707 219.329 40.066 223.018 Z M 58.667 234.563 C 58.627 234.563 58.583 234.559 58.539 234.55 C 50.939 232.807 44.145 228.977 38.903 223.478 C 38.713 223.279 38.691 222.974 38.846 222.748 C 41.933 218.263 45.799 215.609 47.829 214.424 C 47.975 214.34 48.152 214.322 48.312 214.379 C 48.471 214.432 48.599 214.556 48.657 214.711 C 52.005 223.275 59.742 226.699 62.909 227.773 C 63.064 227.827 63.192 227.942 63.254 228.092 C 63.32 228.242 63.316 228.415 63.249 228.561 C 62.139 230.958 60.728 232.931 59.052 234.417 C 58.945 234.515 58.808 234.563 58.667 234.563" fill-opacity="1" fill-rule="nonzero" style=""/>
  <path fill="#ffffff" d="M 104.511 207.78 L 77.104 204.135 L 86.242 169.677 L 113.65 173.321 L 104.511 207.78" fill-opacity="1" fill-rule="nonzero" style=""/>
  <path fill="#000000" d="M 77.829 203.648 L 104.086 207.138 L 112.924 173.808 L 86.667 170.314 Z M 104.511 208.359 C 104.489 208.359 104.462 208.355 104.436 208.355 L 77.028 204.705 C 76.86 204.688 76.714 204.595 76.621 204.458 C 76.528 204.316 76.502 204.148 76.546 203.989 L 85.68 169.531 C 85.756 169.248 86.03 169.066 86.317 169.106 L 113.725 172.751 C 113.888 172.773 114.039 172.861 114.132 172.999 C 114.22 173.14 114.251 173.308 114.207 173.467 L 105.073 207.93 C 105.002 208.182 104.772 208.359 104.511 208.359" fill-opacity="1" fill-rule="nonzero" style=""/>
  <path fill="#c7ebe6" d="M 87.742 200.039 L 81.775 199.247 L 86.888 179.957 L 92.86 180.753 L 87.742 200.039" fill-opacity="1" fill-rule="nonzero" style=""/>
  <path fill="#c7ebe6" d="M 95.204 201.03 L 89.232 200.238 L 95.761 175.626 L 101.729 176.422 L 95.204 201.03" fill-opacity="1" fill-rule="nonzero" style=""/>
  <path fill="#c7ebe6" d="M 102.666 202.025 L 96.695 201.229 L 99.742 189.732 L 105.714 190.524 L 102.666 202.025" fill-opacity="1" fill-rule="nonzero" style=""/>
  <path fill="#075e54" d="M 84.959 192.231 C 84.911 192.231 84.858 192.223 84.809 192.209 C 84.504 192.13 84.318 191.811 84.402 191.502 L 87.636 179.306 C 87.711 179.028 87.981 178.846 88.268 178.882 L 94.24 179.678 C 94.403 179.7 94.549 179.788 94.642 179.93 C 94.735 180.067 94.762 180.235 94.722 180.399 L 93.258 185.915 C 93.178 186.224 92.86 186.406 92.55 186.326 C 92.245 186.242 92.059 185.928 92.143 185.618 L 93.435 180.735 L 88.622 180.094 L 85.517 191.798 C 85.446 192.059 85.216 192.231 84.959 192.231" fill-opacity="1" fill-rule="nonzero" style=""/>
  <path fill="#075e54" d="M 97.287 198.181 C 97.239 198.181 97.186 198.172 97.137 198.159 C 96.827 198.075 96.646 197.761 96.726 197.451 L 102.308 176.405 L 97.491 175.763 L 92.966 192.842 C 92.882 193.147 92.563 193.333 92.258 193.249 C 91.948 193.169 91.767 192.851 91.847 192.546 L 96.509 174.976 C 96.58 174.697 96.854 174.516 97.142 174.551 L 103.113 175.347 C 103.277 175.369 103.423 175.462 103.516 175.6 C 103.609 175.737 103.635 175.909 103.595 176.068 L 97.845 197.747 C 97.774 198.008 97.54 198.181 97.287 198.181" fill-opacity="1" fill-rule="nonzero" style=""/>
  <path fill="#075e54" d="M 98.548 199.247 C 98.495 199.247 98.446 199.243 98.398 199.229 C 98.088 199.145 97.907 198.831 97.986 198.522 L 100.49 189.082 C 100.565 188.799 100.835 188.618 101.127 188.657 L 107.094 189.449 C 107.262 189.471 107.408 189.564 107.501 189.701 C 107.59 189.838 107.621 190.011 107.576 190.17 L 105.82 196.805 C 105.736 197.11 105.418 197.296 105.112 197.217 C 104.803 197.133 104.621 196.819 104.701 196.509 L 106.294 190.511 L 101.476 189.869 L 99.105 198.818 C 99.035 199.074 98.8 199.247 98.548 199.247" fill-opacity="1" fill-rule="nonzero" style=""/>
  <path fill="#ffffff" d="M 109.346 199.327 C 102.242 195.129 85.437 189.661 85.437 189.661 C 83.221 188.206 81.461 186.154 80.372 183.734 L 79.669 182.164 C 79.669 182.164 77.161 181.876 79.09 187.122 C 78.528 187.012 78.802 186.923 78.413 187.061 C 76.405 187.755 77.294 189.608 77.294 189.608 C 77.294 189.608 76.329 191.493 77.311 192.488 C 77.311 192.488 76.776 196.434 80.629 196.615 C 80.629 196.615 98.575 207.205 103.171 208.001 C 107.762 208.797 113.937 202.038 109.346 199.327" fill-opacity="1" fill-rule="nonzero" style=""/>
  <path fill="#000000" d="M 78.625 187.596 C 78.156 187.759 77.873 187.985 77.754 188.277 C 77.55 188.764 77.811 189.356 77.811 189.361 C 77.891 189.524 77.886 189.715 77.807 189.874 C 77.798 189.887 77.055 191.409 77.723 192.081 C 77.847 192.209 77.909 192.386 77.882 192.563 C 77.882 192.576 77.692 194.129 78.537 195.138 C 79.001 195.691 79.713 195.996 80.656 196.04 C 80.753 196.044 80.841 196.071 80.925 196.12 C 81.102 196.226 98.831 206.665 103.268 207.43 C 105.944 207.89 109.297 205.409 110.168 203.047 C 110.522 202.087 110.615 200.747 109.049 199.822 C 102.082 195.704 85.424 190.263 85.26 190.21 C 85.212 190.192 85.163 190.17 85.119 190.144 C 82.801 188.622 80.978 186.49 79.846 183.973 L 79.324 182.814 C 79.271 182.845 79.209 182.894 79.16 182.964 C 78.961 183.23 78.607 184.146 79.629 186.923 C 79.704 187.122 79.66 187.339 79.528 187.498 C 79.39 187.658 79.178 187.733 78.97 187.689 C 78.82 187.658 78.709 187.627 78.625 187.596 Z M 103.958 208.642 C 103.662 208.642 103.365 208.62 103.073 208.571 C 98.575 207.793 82.164 198.19 80.456 197.186 C 79.244 197.097 78.298 196.659 77.643 195.872 C 76.714 194.757 76.683 193.28 76.714 192.678 C 75.94 191.639 76.427 190.17 76.666 189.591 C 76.546 189.219 76.396 188.525 76.688 187.83 C 76.94 187.22 77.457 186.777 78.223 186.512 C 78.236 186.508 78.249 186.503 78.262 186.499 C 77.617 184.455 77.617 183.053 78.262 182.235 C 78.727 181.646 79.404 181.553 79.735 181.593 C 79.934 181.615 80.111 181.744 80.195 181.929 L 80.899 183.5 C 81.929 185.791 83.588 187.737 85.689 189.135 C 87.065 189.586 102.768 194.766 109.638 198.827 C 111.367 199.853 111.955 201.534 111.252 203.445 C 110.297 206.037 107.05 208.642 103.958 208.642" fill-opacity="1" fill-rule="nonzero" style=""/>
  <path fill="#000000" d="M 65.244 147.679 C 65.244 147.679 63.811 144.127 63.272 143.486 C 62.732 142.844 62.325 142.176 64.068 141.093 C 65.811 140.013 70.367 137.12 73.056 137.297 C 75.741 137.479 77.533 139.372 76.635 140.606 C 75.741 141.845 75.33 142.367 75.967 142.486 C 76.599 142.605 76.909 143.375 75.042 144.37 C 73.18 145.361 66.624 149.762 65.244 147.679" fill-opacity="1" fill-rule="nonzero" style=""/>
  <path fill="#ffffff" d="M 75.418 161.781 L 74.75 155.606 C 78.103 154.15 76.918 151.802 76.533 149.962 C 76.117 147.98 74.737 143.649 74.737 143.649 C 71.968 145.074 66.744 144.308 66.744 144.308 C 66.744 144.308 67.43 145.551 66.965 146.118 C 66.501 146.688 66.492 147.998 66.492 147.998 C 66.492 147.998 65.603 147.064 64.563 147.679 C 63.979 148.028 64.532 149.683 64.944 150.616 C 65.355 151.554 66.341 151.788 66.341 151.788 C 66.341 151.788 66.66 152.673 66.947 153.491 L 64.55 163.134 L 60.971 164.391 L 72.503 166.607 L 78.612 162.449 L 75.418 161.781" fill-opacity="1" fill-rule="nonzero" style=""/>
  <path fill="#000000" d="M 63.179 164.227 L 72.375 165.996 L 77.165 162.736 L 75.303 162.347 C 75.055 162.298 74.87 162.09 74.843 161.843 L 74.175 155.663 C 74.149 155.416 74.286 155.177 74.52 155.075 C 76.971 154.009 76.595 152.554 76.157 150.873 C 76.086 150.603 76.02 150.337 75.967 150.081 C 75.653 148.59 74.768 145.697 74.379 144.437 C 72.198 145.259 69.164 145.131 67.629 144.99 C 67.748 145.481 67.766 146.056 67.412 146.485 C 67.182 146.763 67.076 147.542 67.071 148.002 C 67.067 148.236 66.925 148.449 66.704 148.533 C 66.487 148.621 66.235 148.568 66.076 148.396 C 66.018 148.338 65.497 147.838 64.904 148.152 C 64.829 148.396 64.979 149.263 65.474 150.386 C 65.762 151.036 66.465 151.222 66.474 151.227 C 66.664 151.271 66.819 151.408 66.885 151.594 C 66.885 151.594 67.204 152.478 67.491 153.301 C 67.531 153.407 67.536 153.522 67.509 153.628 L 65.112 163.272 C 65.063 163.462 64.926 163.612 64.74 163.678 Z M 72.503 167.186 C 72.463 167.186 72.428 167.182 72.393 167.173 L 60.861 164.957 C 60.604 164.904 60.414 164.691 60.396 164.43 C 60.374 164.169 60.533 163.931 60.781 163.842 L 64.063 162.692 L 66.346 153.522 C 66.169 153.027 65.992 152.531 65.89 152.24 C 65.479 152.071 64.78 151.678 64.417 150.851 C 63.82 149.493 63.307 147.754 64.271 147.184 C 64.899 146.812 65.514 146.843 66.01 147.02 C 66.089 146.582 66.24 146.095 66.518 145.755 C 66.611 145.635 66.501 145.065 66.24 144.587 C 66.133 144.397 66.147 144.162 66.271 143.981 C 66.394 143.8 66.611 143.707 66.828 143.738 C 66.877 143.747 71.902 144.459 74.472 143.136 C 74.622 143.057 74.799 143.052 74.958 143.114 C 75.113 143.18 75.232 143.313 75.286 143.472 C 75.343 143.654 76.679 147.852 77.095 149.842 C 77.148 150.081 77.21 150.329 77.276 150.581 C 77.705 152.24 78.285 154.487 75.37 155.951 L 75.949 161.303 L 78.731 161.883 C 78.957 161.931 79.134 162.108 79.178 162.334 C 79.227 162.564 79.129 162.794 78.939 162.926 L 72.826 167.084 C 72.729 167.151 72.618 167.186 72.503 167.186" fill-opacity="1" fill-rule="nonzero" style=""/>
  <path fill="#000000" d="M 72.021 156.707 C 68.58 156.707 67.447 153.974 67.434 153.938 C 67.315 153.642 67.461 153.306 67.757 153.191 C 68.053 153.071 68.389 153.217 68.504 153.513 C 68.562 153.651 69.889 156.712 74.556 155.062 C 74.856 154.951 75.188 155.11 75.294 155.411 C 75.401 155.712 75.241 156.039 74.94 156.15 C 73.821 156.544 72.853 156.707 72.021 156.707" fill-opacity="1" fill-rule="nonzero" style=""/>
  <path fill="#000000" d="M 44.76 98.371 C 44.609 98.371 44.463 98.314 44.353 98.203 C 44.127 97.978 44.127 97.611 44.353 97.385 L 75.971 65.762 C 78.824 62.909 83.464 62.909 86.317 65.762 C 88.719 68.169 92.63 68.169 95.032 65.762 L 105.86 54.934 C 106.086 54.708 106.448 54.708 106.674 54.934 C 106.9 55.159 106.9 55.526 106.674 55.752 L 95.845 66.581 C 94.465 67.961 92.63 68.721 90.674 68.721 C 88.719 68.721 86.884 67.961 85.499 66.581 C 83.097 64.179 79.191 64.179 76.789 66.581 L 45.167 98.203 C 45.056 98.314 44.906 98.371 44.76 98.371" fill-opacity="1" fill-rule="nonzero" style=""/>
  <path fill="#000000" d="M 78.444 101.419 C 78.298 101.419 78.147 101.362 78.037 101.251 C 77.811 101.025 77.811 100.658 78.037 100.433 L 88.432 90.038 C 88.657 89.812 89.02 89.812 89.246 90.038 C 89.471 90.263 89.471 90.626 89.246 90.856 L 78.851 101.251 C 78.74 101.362 78.59 101.419 78.444 101.419" fill-opacity="1" fill-rule="nonzero" style=""/>
  <path fill="#000000" d="M 47.254 132.609 C 47.108 132.609 46.963 132.551 46.847 132.436 C 46.622 132.21 46.622 131.848 46.847 131.618 L 71.105 107.364 C 71.331 107.139 71.694 107.139 71.919 107.364 C 72.149 107.59 72.149 107.957 71.919 108.178 L 47.666 132.436 C 47.551 132.551 47.405 132.609 47.254 132.609" fill-opacity="1" fill-rule="nonzero" style=""/>
  <path fill="#000000" d="M 40.327 139.536 C 40.177 139.536 40.031 139.482 39.916 139.367 C 39.69 139.142 39.69 138.775 39.916 138.549 L 43.384 135.086 C 43.61 134.86 43.972 134.86 44.198 135.086 C 44.423 135.311 44.423 135.678 44.198 135.9 L 40.734 139.367 C 40.619 139.482 40.473 139.536 40.327 139.536" fill-opacity="1" fill-rule="nonzero" style=""/>
  <path fill="#000000" d="M 74.768 91.427 C 72.424 91.427 70.517 89.525 70.517 87.18 C 70.517 84.84 72.424 82.938 74.768 82.938 C 75.086 82.938 75.347 83.195 75.347 83.513 C 75.347 83.832 75.086 84.093 74.768 84.093 C 73.061 84.093 71.672 85.477 71.672 87.18 C 71.672 88.888 73.061 90.277 74.768 90.277 C 76.475 90.277 77.869 88.888 77.869 87.18 C 77.869 86.866 78.125 86.605 78.444 86.605 C 78.762 86.605 79.023 86.866 79.023 87.18 C 79.023 89.525 77.112 91.427 74.768 91.427" fill-opacity="1" fill-rule="nonzero" style=""/>
  <path fill="#000000" d="M 283.004 280.177 C 282.862 280.177 282.721 280.124 282.61 280.014 C 282.376 279.797 282.367 279.43 282.588 279.2 L 284.406 277.302 C 284.627 277.068 284.994 277.059 285.224 277.285 C 285.454 277.501 285.459 277.868 285.242 278.098 L 283.424 279.996 C 283.309 280.115 283.159 280.177 283.004 280.177" fill-opacity="1" fill-rule="nonzero" style=""/>
  <path fill="#000000" d="M 276.643 286.826 C 276.501 286.826 276.355 286.773 276.245 286.667 C 276.01 286.445 276.006 286.083 276.223 285.848 L 278.041 283.951 C 278.262 283.721 278.629 283.712 278.859 283.933 C 279.089 284.154 279.098 284.517 278.877 284.751 L 277.059 286.649 C 276.948 286.768 276.793 286.826 276.643 286.826" fill-opacity="1" fill-rule="nonzero" style=""/>
  <path fill="#000000" d="M 278.426 280.279 C 278.28 280.279 278.134 280.226 278.023 280.111 L 276.174 278.293 C 275.944 278.072 275.944 277.705 276.17 277.479 C 276.391 277.249 276.758 277.249 276.983 277.47 L 278.832 279.293 C 279.058 279.514 279.062 279.881 278.837 280.107 C 278.722 280.222 278.576 280.279 278.426 280.279" fill-opacity="1" fill-rule="nonzero" style=""/>
  <path fill="#000000" d="M 284.884 286.644 C 284.738 286.644 284.587 286.587 284.477 286.476 L 282.632 284.658 C 282.407 284.437 282.402 284.07 282.623 283.84 C 282.849 283.614 283.216 283.61 283.442 283.836 L 285.291 285.654 C 285.516 285.879 285.516 286.246 285.295 286.472 C 285.18 286.587 285.034 286.644 284.884 286.644" fill-opacity="1" fill-rule="nonzero" style=""/>
  <path fill="#000000" d="M 330.626 129.247 C 329.122 129.924 328.445 131.719 329.104 133.254 C 329.427 134.002 330.016 134.577 330.763 134.864 C 331.493 135.148 332.285 135.13 332.997 134.807 C 334.496 134.135 335.178 132.334 334.514 130.799 C 334.196 130.052 333.607 129.481 332.86 129.189 C 332.13 128.906 331.338 128.928 330.626 129.247 Z M 331.811 136.218 C 331.316 136.218 330.821 136.125 330.343 135.944 C 329.308 135.537 328.489 134.749 328.043 133.714 C 327.136 131.6 328.078 129.127 330.148 128.194 C 331.148 127.747 332.258 127.716 333.276 128.114 C 334.315 128.517 335.133 129.309 335.576 130.344 C 336.487 132.454 335.545 134.931 333.475 135.86 C 332.944 136.099 332.378 136.218 331.811 136.218" fill-opacity="1" fill-rule="nonzero" style=""/>
  <path fill="#000000" d="M 111.385 48.126 C 111.119 48.126 110.858 48.184 110.606 48.294 C 109.624 48.737 109.173 49.922 109.611 50.931 C 109.823 51.426 110.208 51.802 110.699 51.992 C 111.177 52.178 111.699 52.165 112.163 51.952 C 113.15 51.51 113.597 50.325 113.163 49.316 C 112.951 48.825 112.566 48.449 112.075 48.259 C 111.849 48.17 111.619 48.126 111.385 48.126 Z M 111.389 53.275 C 111.013 53.275 110.642 53.209 110.283 53.067 C 109.5 52.766 108.886 52.169 108.549 51.391 C 107.868 49.803 108.576 47.94 110.133 47.241 C 110.885 46.901 111.725 46.883 112.491 47.179 C 113.274 47.485 113.888 48.082 114.225 48.86 C 114.906 50.444 114.198 52.306 112.637 53.005 C 112.239 53.186 111.814 53.275 111.389 53.275" fill-opacity="1" fill-rule="nonzero" style=""/>
  <path fill="#000000" d="M 203.958 319.51 C 203.807 319.51 203.661 319.453 203.546 319.338 C 203.321 319.117 203.321 318.749 203.546 318.524 L 234.444 287.626 C 234.674 287.396 235.036 287.396 235.262 287.626 C 235.488 287.852 235.488 288.215 235.262 288.44 L 204.365 319.338 C 204.25 319.453 204.104 319.51 203.958 319.51" fill-opacity="1" fill-rule="nonzero" style=""/>
  <path fill="#000000" d="M 189.192 322.66 C 189.042 322.66 188.896 322.602 188.781 322.492 C 188.555 322.262 188.555 321.899 188.781 321.673 L 202.586 307.868 C 202.812 307.642 203.175 307.642 203.4 307.868 C 203.626 308.093 203.626 308.461 203.4 308.686 L 189.599 322.492 C 189.484 322.602 189.338 322.66 189.192 322.66" fill-opacity="1" fill-rule="nonzero" style=""/>
  <path fill="#000000" d="M 274.383 250.479 C 274.232 250.479 274.091 250.421 273.976 250.306 C 273.75 250.081 273.75 249.718 273.976 249.492 L 292.417 231.047 C 292.642 230.821 293.009 230.821 293.235 231.047 C 293.461 231.277 293.461 231.639 293.235 231.865 L 274.789 250.306 C 274.679 250.421 274.533 250.479 274.383 250.479" fill-opacity="1" fill-rule="nonzero" style=""/>
</svg>