<svg xmlns="http://www.w3.org/2000/svg" xmlns:xlink="http://www.w3.org/1999/xlink" width="1920" zoomAndPan="magnify" viewBox="0 0 1440 809.999993" height="1080" preserveAspectRatio="xMidYMid meet" version="1.0"><defs><clipPath id="id1"><path d="M 135.195312 233.09375 L 655.695312 233.09375 L 655.695312 476 L 135.195312 476 Z M 135.195312 233.09375 " clip-rule="nonzero"/></clipPath><clipPath id="id2"><path d="M 135.195312 505 L 641 505 L 641 545 L 135.195312 545 Z M 135.195312 505 " clip-rule="nonzero"/></clipPath></defs><rect x="-144" width="1728" fill="#ffffff" y="-80.999999" height="971.999992" fill-opacity="1"/><rect x="-144" width="1728" fill="#ffffff" y="-80.999999" height="971.999992" fill-opacity="1"/><rect x="-144" width="1728" fill="#ffffff" y="-80.999999" height="971.999992" fill-opacity="1"/><rect x="-144" width="1728" fill="#ffffff" y="-80.999999" height="971.999992" fill-opacity="1"/><rect x="-144" width="1728" fill="#128c7e" y="-80.999999" height="971.999992" fill-opacity="1"/><g clip-path="url(#id1)"><path fill="#ffffff" d="M 506.289062 431.441406 L 506.289062 431.824219 C 506.289062 456.929688 487.984375 475.382812 458.246094 475.382812 C 434.222656 475.382812 417.636719 465.871094 406.199219 452.367188 L 426.410156 433.152344 C 435.558594 443.425781 445.09375 449.128906 458.628906 449.128906 C 469.683594 449.128906 477.5 442.855469 477.5 432.964844 C 477.355469 432.703125 479.65625 415.65625 451.382812 415.65625 L 439.183594 415.65625 L 434.605469 397.011719 L 477.414062 354.046875 L 460.257812 365.0625 L 414.019531 365.0625 L 414.019531 339.957031 L 504.1875 339.957031 L 504.1875 362.019531 L 470.445312 394.164062 C 488.558594 397.207031 506.289062 406.714844 506.289062 431.441406 M 422.59375 279.070312 C 422.59375 267.019531 431.257812 257.316406 443.414062 257.316406 L 457.109375 257.316406 L 453.523438 259.101562 C 453.6875 292.140625 452.871094 296.304688 454.984375 301.132812 L 443.566406 301.128906 C 431.410156 301.128906 422.59375 291.277344 422.59375 279.222656 Z M 443.414062 306.667969 L 455.578125 306.667969 L 455.578125 302.292969 C 456.464844 303.832031 457.65625 305.023438 459.417969 305.859375 C 463.285156 307.695312 460.472656 306.539062 571.433594 306.882812 L 571.433594 251.78125 L 565.582031 251.78125 L 565.582031 301.042969 C 565.582031 301.042969 464.121094 301.433594 462.195312 300.566406 C 460.519531 299.8125 459.914062 298.09375 459.632812 296.261719 C 459.191406 293.285156 459.460938 293.230469 459.378906 251.78125 L 443.566406 251.78125 C 427.382812 251.78125 416.367188 264.59375 416.367188 279.222656 L 416.367188 279.375 C 416.367188 294.007812 427.230469 306.667969 443.414062 306.667969 M 614.566406 245.941406 L 601.746094 245.941406 C 602.023438 241.703125 600.058594 233.800781 608.699219 233.800781 L 612.828125 233.800781 L 612.828125 237.867188 C 608.828125 238.164062 606.527344 236.894531 606.527344 240.085938 L 606.527344 241.4375 L 614.566406 241.4375 Z M 629.386719 307.476562 C 627.828125 307.476562 626.238281 307.257812 624.632812 306.816406 L 626.167969 301.199219 C 628.816406 301.953125 632.199219 301.996094 633.59375 299.628906 C 635.222656 296.828125 634.640625 295.84375 634.726562 251.78125 L 640.578125 251.78125 C 640.410156 292.914062 640.984375 294.0625 640.03125 298.828125 C 638.910156 304.40625 635.523438 307.476562 629.386719 307.476562 M 459.378906 245.941406 L 453.523438 245.941406 L 453.523438 240.101562 L 459.378906 240.101562 Z M 588.191406 266.089844 C 590.9375 260.742188 596.703125 257.765625 602.597656 257.703125 L 602.597656 257.691406 L 612.054688 257.691406 L 608.714844 259.359375 L 608.714844 285.582031 C 604.109375 285.445312 600.871094 286.019531 596.605469 284.664062 C 590.78125 282.835938 586.835938 278.355469 586.835938 271.855469 C 586.835938 269.765625 587.289062 267.839844 588.191406 266.089844 M 588.191406 286.785156 C 595.8125 292.210938 606.203125 291.316406 606.746094 291.417969 L 608.714844 287.296875 C 608.394531 291.292969 609.8125 296.871094 606.082031 299.667969 C 602.925781 302.023438 597.296875 301.949219 593.824219 301.125 C 592.386719 300.785156 590.738281 300.203125 588.886719 299.375 L 587.058594 304.996094 C 590.765625 306.363281 594.3125 307.476562 598.25 307.476562 C 603.957031 307.476562 608.101562 306.125 610.6875 303.425781 C 613.273438 300.722656 614.566406 297.085938 614.566406 292.515625 L 614.566406 251.78125 C 607.363281 252.007812 601.898438 251.054688 595.324219 253.316406 C 577.710938 259.371094 577.359375 279.074219 588.191406 286.785156 M 447.671875 245.941406 L 441.816406 245.941406 L 441.816406 240.101562 L 447.671875 240.101562 Z M 387.089844 251.71875 L 393.136719 251.71875 L 393.136719 306.554688 L 388.1875 306.554688 L 349.261719 257.230469 L 352.703125 265.222656 L 352.703125 306.554688 L 346.65625 306.554688 L 346.65625 251.71875 L 352.46875 251.71875 L 389.636719 298.894531 L 387.089844 292.164062 Z M 158.828125 306.945312 L 135.195312 251.71875 L 142.105469 251.71875 C 142.457031 252.570312 161.289062 298.078125 163.199219 302.695312 L 162.601562 296.667969 L 181.28125 251.71875 L 187.953125 251.71875 L 164.320312 306.945312 Z M 263.550781 251.71875 L 269.753906 251.71875 L 269.753906 306.550781 L 263.550781 306.550781 Z M 330.070312 279.292969 C 330.070312 291.75 321.121094 301.773438 308.558594 301.773438 C 295.996094 301.773438 286.890625 291.589844 286.890625 279.136719 L 286.890625 278.976562 C 286.890625 266.523438 295.84375 256.5 308.402344 256.5 C 320.964844 256.5 330.070312 266.683594 330.070312 279.136719 Z M 308.558594 250.78125 C 291.835938 250.78125 280.453125 264.019531 280.453125 279.136719 L 280.453125 279.292969 C 280.453125 294.410156 291.679688 307.492188 308.402344 307.492188 C 325.125 307.492188 336.507812 294.253906 336.507812 279.136719 L 336.507812 278.976562 C 336.507812 263.863281 325.28125 250.78125 308.558594 250.78125 M 253.316406 291.667969 L 253.316406 291.824219 C 253.316406 301.222656 245.46875 307.335938 234.554688 307.335938 C 225.839844 307.335938 218.699219 304.4375 212.101562 298.5625 L 215.949219 294.019531 C 221.679688 299.1875 227.175781 301.769531 234.792969 301.769531 C 242.171875 301.769531 247.039062 297.859375 247.039062 292.449219 L 247.039062 292.296875 C 247.039062 276.992188 214.300781 287.089844 214.300781 266.050781 L 214.300781 265.898438 C 214.300781 257.28125 221.917969 250.933594 232.359375 250.933594 C 240.363281 250.933594 246.097656 253.207031 251.671875 257.675781 L 248.0625 262.449219 C 235.601562 252.316406 220.503906 256.199219 220.503906 265.351562 L 220.503906 265.507812 C 220.503906 270.675781 223.328125 273.574219 235.421875 276.160156 C 247.667969 278.824219 253.316406 283.289062 253.316406 291.667969 M 202.578125 306.554688 L 196.378906 306.554688 L 196.378906 251.722656 L 202.578125 251.722656 Z M 563.539062 312.71875 L 569.394531 312.71875 L 569.394531 318.558594 L 563.539062 318.558594 Z M 551.832031 312.71875 L 557.6875 312.71875 L 557.6875 318.558594 L 551.832031 318.558594 Z M 184.273438 447.796875 L 235.15625 447.796875 L 235.15625 473.101562 L 136.402344 473.101562 L 136.402344 449.894531 C 185.75 408.03125 203.890625 399.851562 203.890625 381.609375 C 203.890625 370.386719 196.457031 364.300781 185.972656 364.300781 C 175.675781 364.300781 168.621094 370.003906 158.707031 382.175781 L 138.121094 365.632812 C 151.273438 347.75 164.050781 338.050781 187.878906 338.050781 C 215.519531 338.050781 233.824219 354.21875 233.824219 379.136719 L 233.824219 379.515625 C 233.824219 410.761719 210.160156 420.832031 169.582031 453.523438 L 163.914062 457.886719 Z M 625.003906 406.90625 C 625.003906 429.730469 608.609375 448.371094 584.964844 448.371094 C 561.328125 448.371094 544.550781 429.351562 544.550781 406.523438 L 544.550781 406.144531 C 544.550781 383.320312 560.949219 364.679688 584.585938 364.679688 C 608.222656 364.679688 625.003906 383.703125 625.003906 406.523438 Z M 584.964844 337.671875 C 543.789062 337.671875 513.859375 368.675781 513.859375 406.523438 L 513.859375 406.90625 C 513.859375 444.757812 543.40625 475.382812 584.585938 475.382812 C 625.765625 475.382812 655.695312 444.375 655.695312 406.523438 L 655.695312 406.144531 C 655.695312 368.292969 626.144531 337.671875 584.964844 337.671875 " fill-opacity="1" fill-rule="nonzero"/></g><path fill="#ffffff" d="M 314.929688 328.914062 L 321.6875 335.386719 L 315.199219 342.125 L 308.445312 335.65625 " fill-opacity="1" fill-rule="nonzero"/><path fill="#ffffff" d="M 330.398438 335.65625 L 337.152344 342.125 L 343.636719 335.386719 L 336.882812 328.914062 " fill-opacity="1" fill-rule="nonzero"/><path fill="#ffffff" d="M 320.878906 344.152344 L 326.144531 349.191406 L 331.191406 343.941406 L 325.933594 338.902344 " fill-opacity="1" fill-rule="nonzero"/><path fill="#ffffff" d="M 340.171875 347.035156 L 345.433594 352.074219 L 350.480469 346.824219 L 345.21875 341.785156 " fill-opacity="1" fill-rule="nonzero"/><path fill="#ffffff" d="M 312.277344 352.179688 L 317.539062 357.21875 L 322.585938 351.96875 L 317.328125 346.929688 " fill-opacity="1" fill-rule="nonzero"/><path fill="#ffffff" d="M 329.933594 352.792969 L 335.191406 357.832031 L 340.242188 352.582031 L 334.980469 347.542969 " fill-opacity="1" fill-rule="nonzero"/><path fill="#ffffff" d="M 323.027344 358.832031 L 326.726562 362.375 L 330.277344 358.679688 L 326.578125 355.136719 " fill-opacity="1" fill-rule="nonzero"/><path fill="#ffffff" d="M 336.988281 361.613281 L 340.691406 365.15625 L 344.246094 361.464844 L 340.542969 357.921875 " fill-opacity="1" fill-rule="nonzero"/><path fill="#ffffff" d="M 367.484375 333.519531 L 378.964844 331.417969 L 381.066406 342.875 L 369.585938 344.976562 Z M 367.484375 333.519531 " fill-opacity="1" fill-rule="nonzero"/><path fill="#ffffff" d="M 352.5 338.324219 L 361.710938 336.636719 L 363.394531 345.828125 L 354.183594 347.515625 Z M 352.5 338.324219 " fill-opacity="1" fill-rule="nonzero"/><path fill="#ffffff" d="M 370.304688 351.132812 L 379.515625 349.445312 L 381.203125 358.636719 L 371.992188 360.324219 Z M 370.304688 351.132812 " fill-opacity="1" fill-rule="nonzero"/><path fill="#ffffff" d="M 357.601562 352.480469 L 364.773438 351.164062 L 366.085938 358.320312 L 358.914062 359.632812 Z M 357.601562 352.480469 " fill-opacity="1" fill-rule="nonzero"/><path fill="#ffffff" d="M 371.558594 366.074219 L 378.730469 364.761719 L 380.042969 371.917969 L 372.871094 373.234375 Z M 371.558594 366.074219 " fill-opacity="1" fill-rule="nonzero"/><path fill="#ffffff" d="M 346.855469 355.390625 L 354.03125 354.074219 L 355.34375 361.234375 L 348.167969 362.546875 Z M 346.855469 355.390625 " fill-opacity="1" fill-rule="nonzero"/><path fill="#ffffff" d="M 359.875 364.765625 L 367.046875 363.449219 L 368.359375 370.609375 L 361.1875 371.921875 Z M 359.875 364.765625 " fill-opacity="1" fill-rule="nonzero"/><path fill="#ffffff" d="M 350.734375 365.628906 L 355.777344 364.703125 L 356.703125 369.738281 L 351.65625 370.664062 Z M 350.734375 365.628906 " fill-opacity="1" fill-rule="nonzero"/><path fill="#ffffff" d="M 360.425781 376.039062 L 365.472656 375.117188 L 366.394531 380.148438 L 361.347656 381.070312 Z M 360.425781 376.039062 " fill-opacity="1" fill-rule="nonzero"/><path fill="#ffffff" d="M 401.632812 371.054688 L 396.617188 381.574219 L 407.160156 386.578125 L 412.171875 376.058594 " fill-opacity="1" fill-rule="nonzero"/><path fill="#ffffff" d="M 386.667969 366.195312 L 382.644531 374.632812 L 391.101562 378.648438 L 395.125 370.207031 " fill-opacity="1" fill-rule="nonzero"/><path fill="#ffffff" d="M 393.589844 386.980469 L 389.566406 395.421875 L 398.023438 399.433594 L 402.046875 390.996094 " fill-opacity="1" fill-rule="nonzero"/><path fill="#ffffff" d="M 382.507812 380.648438 L 379.375 387.222656 L 385.960938 390.347656 L 389.09375 383.777344 " fill-opacity="1" fill-rule="nonzero"/><path fill="#ffffff" d="M 385.851562 399.828125 L 382.714844 406.398438 L 389.300781 409.523438 L 392.4375 402.953125 " fill-opacity="1" fill-rule="nonzero"/><path fill="#ffffff" d="M 372.082031 376.738281 L 368.945312 383.308594 L 375.535156 386.433594 L 378.667969 379.863281 " fill-opacity="1" fill-rule="nonzero"/><path fill="#ffffff" d="M 377.148438 391.941406 L 374.011719 398.511719 L 380.597656 401.640625 L 383.734375 395.066406 " fill-opacity="1" fill-rule="nonzero"/><path fill="#ffffff" d="M 369.226562 387.308594 L 367.019531 391.929688 L 371.652344 394.128906 L 373.855469 389.507812 " fill-opacity="1" fill-rule="nonzero"/><path fill="#ffffff" d="M 368.769531 406.011719 L 370.972656 401.390625 L 375.601562 403.59375 L 373.402344 408.214844 Z M 368.769531 406.011719 " fill-opacity="1" fill-rule="nonzero"/><path fill="#ffffff" d="M 407.3125 421.421875 L 397.078125 427.023438 L 402.695312 437.238281 L 412.929688 431.636719 " fill-opacity="1" fill-rule="nonzero"/><path fill="#ffffff" d="M 398.03125 408.746094 L 389.820312 413.242188 L 394.324219 421.433594 L 402.535156 416.941406 " fill-opacity="1" fill-rule="nonzero"/><path fill="#ffffff" d="M 391.453125 429.644531 L 383.242188 434.140625 L 387.746094 442.332031 L 395.957031 437.839844 " fill-opacity="1" fill-rule="nonzero"/><path fill="#ffffff" d="M 386.175781 418.039062 L 379.78125 421.542969 L 383.289062 427.917969 L 389.683594 424.421875 " fill-opacity="1" fill-rule="nonzero"/><path fill="#ffffff" d="M 377.644531 435.542969 L 371.246094 439.046875 L 374.753906 445.421875 L 381.148438 441.925781 " fill-opacity="1" fill-rule="nonzero"/><path fill="#ffffff" d="M 380.015625 408.785156 L 373.621094 412.28125 L 377.128906 418.664062 L 383.527344 415.164062 " fill-opacity="1" fill-rule="nonzero"/><path fill="#ffffff" d="M 375.207031 424.070312 L 368.8125 427.570312 L 372.320312 433.949219 L 378.714844 430.449219 " fill-opacity="1" fill-rule="nonzero"/><path fill="#ffffff" d="M 371.5 415.6875 L 367 418.152344 L 369.46875 422.636719 L 373.964844 420.179688 " fill-opacity="1" fill-rule="nonzero"/><path fill="#ffffff" d="M 364.65625 428.144531 L 360.15625 430.605469 L 362.621094 435.09375 L 367.121094 432.632812 " fill-opacity="1" fill-rule="nonzero"/><path fill="#ffffff" d="M 369.351562 475.679688 L 370.78125 464.117188 L 382.367188 465.550781 L 380.941406 477.113281 Z M 369.351562 475.679688 " fill-opacity="1" fill-rule="nonzero"/><path fill="#ffffff" d="M 371.851562 458.023438 L 373.003906 448.746094 L 382.296875 449.898438 L 381.148438 459.171875 Z M 371.851562 458.023438 " fill-opacity="1" fill-rule="nonzero"/><path fill="#ffffff" d="M 354.261719 471.128906 L 355.410156 461.855469 L 364.707031 463.007812 L 363.554688 472.28125 Z M 354.261719 471.128906 " fill-opacity="1" fill-rule="nonzero"/><path fill="#ffffff" d="M 359.101562 456.863281 L 359.996094 449.644531 L 367.234375 450.539062 L 366.339844 457.757812 Z M 359.101562 456.863281 " fill-opacity="1" fill-rule="nonzero"/><path fill="#ffffff" d="M 341.910156 466.070312 L 342.804688 458.847656 L 350.042969 459.742188 L 349.148438 466.964844 Z M 341.910156 466.070312 " fill-opacity="1" fill-rule="nonzero"/><path fill="#ffffff" d="M 359.527344 445.742188 L 360.425781 438.515625 L 367.664062 439.414062 L 366.769531 446.636719 Z M 359.527344 445.742188 " fill-opacity="1" fill-rule="nonzero"/><path fill="#ffffff" d="M 346.667969 455.324219 L 347.5625 448.101562 L 354.800781 449 L 353.90625 456.21875 Z M 346.667969 455.324219 " fill-opacity="1" fill-rule="nonzero"/><path fill="#ffffff" d="M 350.992188 444.503906 L 351.621094 439.425781 L 356.710938 440.054688 L 356.082031 445.132812 Z M 350.992188 444.503906 " fill-opacity="1" fill-rule="nonzero"/><path fill="#ffffff" d="M 338.125 450.601562 L 338.753906 445.523438 L 343.847656 446.152344 L 343.21875 451.230469 Z M 338.125 450.601562 " fill-opacity="1" fill-rule="nonzero"/><path fill="#ffffff" d="M 336.265625 486.851562 L 327.707031 478.925781 L 319.765625 487.460938 L 328.320312 495.386719 " fill-opacity="1" fill-rule="nonzero"/><path fill="#ffffff" d="M 334.6875 323.6875 L 326.132812 315.761719 L 318.1875 324.296875 L 326.746094 332.222656 " fill-opacity="1" fill-rule="nonzero"/><path fill="#ffffff" d="M 345.394531 474.0625 L 338.53125 467.703125 L 332.160156 474.554688 L 339.023438 480.910156 " fill-opacity="1" fill-rule="nonzero"/><path fill="#ffffff" d="M 323.445312 474.425781 L 316.578125 468.066406 L 310.207031 474.917969 L 317.070312 481.273438 " fill-opacity="1" fill-rule="nonzero"/><path fill="#ffffff" d="M 332.816406 465.769531 L 327.46875 460.820312 L 322.507812 466.152344 L 327.851562 471.101562 " fill-opacity="1" fill-rule="nonzero"/><path fill="#ffffff" d="M 313.476562 463.210938 L 308.132812 458.257812 L 303.171875 463.589844 L 308.519531 468.542969 " fill-opacity="1" fill-rule="nonzero"/><path fill="#ffffff" d="M 339.679688 457.019531 L 334.335938 452.070312 L 329.375 457.402344 L 334.71875 462.351562 " fill-opacity="1" fill-rule="nonzero"/><path fill="#ffffff" d="M 323.625 457.285156 L 318.277344 452.335938 L 313.316406 457.664062 L 318.660156 462.617188 " fill-opacity="1" fill-rule="nonzero"/><path fill="#ffffff" d="M 330.425781 451.132812 L 326.667969 447.648438 L 323.179688 451.402344 L 326.9375 454.882812 " fill-opacity="1" fill-rule="nonzero"/><path fill="#ffffff" d="M 316.421875 448.578125 L 312.660156 445.097656 L 309.171875 448.847656 L 312.929688 452.328125 " fill-opacity="1" fill-rule="nonzero"/><path fill="#ffffff" d="M 272.65625 468.039062 L 284.105469 465.746094 L 286.394531 477.167969 L 274.945312 479.460938 Z M 272.65625 468.039062 " fill-opacity="1" fill-rule="nonzero"/><path fill="#ffffff" d="M 290.277344 464.796875 L 299.460938 462.957031 L 301.296875 472.121094 L 292.117188 473.960938 Z M 290.277344 464.796875 " fill-opacity="1" fill-rule="nonzero"/><path fill="#ffffff" d="M 272.273438 452.277344 L 281.453125 450.433594 L 283.292969 459.597656 L 274.109375 461.441406 Z M 272.273438 452.277344 " fill-opacity="1" fill-rule="nonzero"/><path fill="#ffffff" d="M 287.378906 452.351562 L 294.527344 450.921875 L 295.957031 458.054688 L 288.808594 459.488281 Z M 287.378906 452.351562 " fill-opacity="1" fill-rule="nonzero"/><path fill="#ffffff" d="M 298.074219 449.261719 L 305.222656 447.828125 L 306.65625 454.96875 L 299.503906 456.398438 Z M 298.074219 449.261719 " fill-opacity="1" fill-rule="nonzero"/><path fill="#ffffff" d="M 284.898438 440.105469 L 292.046875 438.671875 L 293.480469 445.808594 L 286.328125 447.238281 Z M 284.898438 440.105469 " fill-opacity="1" fill-rule="nonzero"/><path fill="#ffffff" d="M 296.566406 440.792969 L 301.597656 439.785156 L 302.605469 444.804688 L 297.574219 445.8125 Z M 296.566406 440.792969 " fill-opacity="1" fill-rule="nonzero"/><path fill="#ffffff" d="M 286.710938 430.539062 L 291.738281 429.53125 L 292.746094 434.550781 L 287.714844 435.558594 Z M 286.710938 430.539062 " fill-opacity="1" fill-rule="nonzero"/><path fill="#ffffff" d="M 251.632812 440.210938 L 256.472656 429.609375 L 245.84375 424.78125 L 241.003906 435.378906 " fill-opacity="1" fill-rule="nonzero"/><path fill="#ffffff" d="M 266.671875 444.820312 L 270.554688 436.316406 L 262.03125 432.445312 L 258.148438 440.949219 " fill-opacity="1" fill-rule="nonzero"/><path fill="#ffffff" d="M 259.402344 424.152344 L 263.289062 415.648438 L 254.761719 411.773438 L 250.882812 420.28125 " fill-opacity="1" fill-rule="nonzero"/><path fill="#ffffff" d="M 263.953125 427.289062 L 266.972656 420.667969 L 273.605469 423.691406 L 270.585938 430.3125 Z M 263.953125 427.289062 " fill-opacity="1" fill-rule="nonzero"/><path fill="#ffffff" d="M 279.472656 446.855469 L 282.5 440.234375 L 275.863281 437.21875 L 272.835938 443.839844 " fill-opacity="1" fill-rule="nonzero"/><path fill="#ffffff" d="M 260.308594 408.164062 L 263.328125 401.542969 L 269.960938 404.566406 L 266.9375 411.1875 Z M 260.308594 408.164062 " fill-opacity="1" fill-rule="nonzero"/><path fill="#ffffff" d="M 274.453125 431.019531 L 277.476562 424.398438 L 284.109375 427.421875 L 281.085938 434.042969 Z M 274.453125 431.019531 " fill-opacity="1" fill-rule="nonzero"/><path fill="#ffffff" d="M 269.132812 415.914062 L 272.15625 409.292969 L 278.785156 412.320312 L 275.761719 418.941406 Z M 269.132812 415.914062 " fill-opacity="1" fill-rule="nonzero"/><path fill="#ffffff" d="M 283.761719 423.417969 L 285.890625 418.761719 L 281.21875 416.636719 L 279.09375 421.296875 " fill-opacity="1" fill-rule="nonzero"/><path fill="#ffffff" d="M 281.773438 409.351562 L 283.902344 404.695312 L 279.230469 402.570312 L 277.105469 407.230469 " fill-opacity="1" fill-rule="nonzero"/><path fill="#ffffff" d="M 245.109375 389.9375 L 255.253906 384.167969 L 249.46875 374.050781 L 239.324219 379.820312 " fill-opacity="1" fill-rule="nonzero"/><path fill="#ffffff" d="M 254.605469 402.460938 L 262.742188 397.832031 L 258.101562 389.714844 L 249.964844 394.347656 " fill-opacity="1" fill-rule="nonzero"/><path fill="#ffffff" d="M 260.835938 381.457031 L 268.972656 376.828125 L 264.328125 368.707031 L 256.195312 373.339844 " fill-opacity="1" fill-rule="nonzero"/><path fill="#ffffff" d="M 266.304688 392.972656 L 272.636719 389.367188 L 269.027344 383.046875 L 262.691406 386.648438 " fill-opacity="1" fill-rule="nonzero"/><path fill="#ffffff" d="M 274.546875 375.332031 L 280.878906 371.726562 L 277.265625 365.40625 L 270.933594 369.011719 " fill-opacity="1" fill-rule="nonzero"/><path fill="#ffffff" d="M 272.613281 402.125 L 278.953125 398.523438 L 275.339844 392.203125 L 269 395.808594 " fill-opacity="1" fill-rule="nonzero"/><path fill="#ffffff" d="M 277.171875 386.765625 L 283.503906 383.164062 L 279.894531 376.839844 L 273.558594 380.445312 " fill-opacity="1" fill-rule="nonzero"/><path fill="#ffffff" d="M 281.019531 395.082031 L 285.476562 392.546875 L 282.933594 388.101562 L 278.476562 390.636719 " fill-opacity="1" fill-rule="nonzero"/><path fill="#ffffff" d="M 287.652344 382.515625 L 292.113281 379.980469 L 289.570312 375.535156 L 285.109375 378.070312 " fill-opacity="1" fill-rule="nonzero"/><path fill="#ffffff" d="M 269.3125 345.378906 L 270.550781 333.796875 L 282.15625 335.035156 L 280.917969 346.617188 Z M 269.3125 345.378906 " fill-opacity="1" fill-rule="nonzero"/><path fill="#ffffff" d="M 269.660156 361.070312 L 270.652344 351.777344 L 279.96875 352.777344 L 278.972656 362.066406 Z M 269.660156 361.070312 " fill-opacity="1" fill-rule="nonzero"/><path fill="#ffffff" d="M 287.027344 347.671875 L 288.023438 338.378906 L 297.335938 339.375 L 296.339844 348.667969 Z M 287.027344 347.671875 " fill-opacity="1" fill-rule="nonzero"/><path fill="#ffffff" d="M 284.71875 360.210938 L 285.496094 352.972656 L 292.746094 353.75 L 291.96875 360.984375 Z M 284.71875 360.210938 " fill-opacity="1" fill-rule="nonzero"/><path fill="#ffffff" d="M 301.734375 350.691406 L 302.507812 343.453125 L 309.757812 344.226562 L 308.984375 351.464844 Z M 301.734375 350.691406 " fill-opacity="1" fill-rule="nonzero"/><path fill="#ffffff" d="M 284.460938 371.316406 L 285.234375 364.078125 L 292.488281 364.855469 L 291.710938 372.089844 Z M 284.460938 371.316406 " fill-opacity="1" fill-rule="nonzero"/><path fill="#ffffff" d="M 297.167969 361.511719 L 297.945312 354.273438 L 305.195312 355.050781 L 304.421875 362.285156 Z M 297.167969 361.511719 " fill-opacity="1" fill-rule="nonzero"/><path fill="#ffffff" d="M 295.40625 370.503906 L 295.949219 365.414062 L 301.050781 365.960938 L 300.507812 371.050781 Z M 295.40625 370.503906 " fill-opacity="1" fill-rule="nonzero"/><path fill="#ffffff" d="M 308.167969 364.183594 L 308.710938 359.09375 L 313.816406 359.636719 L 313.273438 364.726562 Z M 308.167969 364.183594 " fill-opacity="1" fill-rule="nonzero"/><path fill="#ffffff" d="M 363.253906 412.726562 C 357.144531 409.210938 348.636719 408.1875 339.828125 411.410156 C 335.976562 412.867188 332.121094 415.40625 328.867188 417.898438 C 326.820312 405.480469 327.816406 393.957031 328.296875 388.292969 C 328.296875 388.261719 328.335938 388.246094 328.363281 388.265625 C 332.761719 391.03125 331.53125 398.761719 330.605469 400.972656 C 330.589844 401.015625 330.652344 401.046875 330.683594 401.007812 C 336.167969 394.539062 333.488281 387.390625 332.363281 385.582031 C 332.160156 385.253906 333.402344 386.25 334.417969 387.550781 C 338.25 392.429688 336.480469 397.90625 336.90625 397.777344 C 336.917969 397.777344 336.929688 397.777344 336.9375 397.765625 C 339.484375 392.769531 338.664062 386.433594 333.425781 381.859375 C 333.1875 381.65625 334.121094 381.960938 334.417969 382.066406 C 338.886719 383.617188 341.214844 388.214844 341.183594 392.316406 C 341.183594 393.21875 344.199219 384.613281 336.90625 380.238281 C 335.542969 379.421875 334.144531 378.976562 333.226562 378.863281 C 332.515625 378.789062 337.132812 378.09375 340.378906 380.289062 C 342.328125 381.605469 342.839844 383.195312 342.789062 382.746094 C 342.222656 376.988281 335.429688 374.710938 331.308594 376.4375 C 330.875 376.65625 332.929688 373.609375 336.90625 373.84375 C 337.671875 373.890625 338.382812 374.054688 338.949219 374.324219 C 338.988281 374.34375 339.023438 374.292969 338.996094 374.257812 C 335.992188 370.824219 331.050781 370.753906 328.425781 374.722656 C 328.410156 374.75 328.371094 374.75 328.351562 374.722656 C 327.359375 372.945312 326.527344 370.664062 326.167969 368.515625 C 326.082031 367.964844 325.898438 371.175781 323.90625 374.722656 C 323.890625 374.75 323.851562 374.75 323.832031 374.722656 C 321.203125 370.742188 316.265625 370.820312 313.265625 374.257812 C 313.234375 374.292969 313.269531 374.34375 313.3125 374.324219 C 315.316406 373.375 319.101562 373.652344 321 376.375 C 321.023438 376.410156 320.988281 376.457031 320.945312 376.4375 C 316.703125 374.65625 310.035156 377.074219 309.46875 382.746094 C 309.464844 382.796875 309.53125 382.820312 309.554688 382.78125 C 309.742188 382.425781 310.210938 381.671875 311.082031 380.90625 C 314.476562 377.914062 319.816406 378.78125 319.03125 378.863281 C 316.945312 379.121094 312.664062 380.976562 311.082031 385.222656 C 309.789062 388.6875 311.035156 393.253906 311.082031 392.121094 C 311.125 388.265625 313.335938 383.097656 318.792969 381.78125 C 318.835938 381.773438 318.867188 381.832031 318.835938 381.859375 C 310.351562 389.3125 315.480469 398.46875 315.402344 397.746094 C 315.140625 394.789062 314.921875 389.511719 319.824219 385.53125 C 319.863281 385.5 319.921875 385.539062 319.894531 385.582031 C 318.769531 387.390625 316.09375 394.539062 321.574219 401.007812 C 321.605469 401.046875 321.667969 401.015625 321.652344 400.972656 C 320.730469 398.761719 319.496094 391.03125 323.894531 388.265625 C 323.921875 388.246094 323.960938 388.261719 323.960938 388.292969 C 324.441406 393.957031 325.441406 405.480469 323.390625 417.898438 C 316.421875 412.574219 309.5625 409.082031 300.730469 409.472656 C 296.285156 409.664062 292.070312 410.957031 289.003906 412.726562 C 288.894531 412.792969 288.976562 412.949219 289.09375 412.914062 C 301.945312 408.808594 313.066406 413.789062 323.40625 422.390625 C 318.183594 426.941406 313.445312 431.703125 310.6875 433.140625 C 310.046875 432.261719 308.929688 431.753906 307.710938 432.019531 C 305.414062 432.527344 304.867188 435.402344 306.113281 436.640625 C 310.625 441.144531 317.683594 432.207031 326.128906 424.742188 C 334.253906 431.921875 341.640625 441.140625 346.144531 436.640625 C 346.503906 436.28125 346.921875 435.097656 346.707031 434.15625 C 346.164062 431.804688 343.039062 431.125 341.570312 433.140625 C 338.917969 431.804688 334.269531 427.105469 328.851562 422.390625 C 339.265625 413.714844 350.265625 408.871094 363.164062 412.914062 C 363.285156 412.949219 363.363281 412.792969 363.253906 412.726562 " fill-opacity="1" fill-rule="nonzero"/><g clip-path="url(#id2)"><path fill="#ffffff" d="M 322.132812 535.640625 L 325.484375 535.640625 L 325.484375 505.652344 L 322.132812 505.652344 Z M 234.359375 532.296875 L 229.128906 519.472656 C 234.542969 514.890625 241.257812 515.734375 245.582031 519.472656 L 240.347656 532.296875 Z M 215.894531 532.296875 C 213.261719 532.21875 211.40625 532.546875 208.964844 531.777344 C 199.910156 528.921875 202.371094 516.339844 212.5 516.339844 L 215.894531 516.339844 Z M 309.027344 532.296875 C 303.628906 532.132812 298.769531 533.25 296.296875 528.957031 C 296.785156 526.8125 296.515625 524.886719 296.589844 515.042969 L 293.238281 515.042969 L 293.238281 526.367188 C 293.238281 534.675781 283.207031 534.136719 280.84375 529.144531 C 279.894531 527.140625 280.472656 526.300781 280.300781 515.042969 L 276.949219 515.042969 L 276.949219 526.617188 C 276.949219 530.394531 274.585938 532.296875 271.292969 532.296875 L 264.804688 532.296875 L 264.804688 515.042969 L 261.457031 515.042969 L 261.457031 532.296875 L 243.867188 532.296875 L 249.730469 518.300781 C 246.402344 515.398438 241.773438 512.664062 237.335938 512.664062 C 232.824219 512.664062 228.285156 515.277344 224.9375 518.300781 L 230.84375 532.296875 L 219.242188 532.296875 L 219.242188 512.957031 L 213.882812 512.957031 C 206.308594 512.957031 200.019531 517.308594 200.019531 524.445312 C 200.019531 537.144531 215.605469 535.578125 215.894531 535.640625 C 215.839844 536.050781 216.3125 538.921875 214.386719 540.363281 C 212.585938 541.710938 209.371094 541.671875 207.371094 541.199219 C 206.546875 541.003906 205.605469 540.671875 204.546875 540.195312 L 203.5 543.414062 C 205.625 544.195312 207.652344 544.835938 209.90625 544.835938 C 216.289062 544.835938 219.242188 541.652344 219.242188 536.265625 L 219.242188 535.640625 C 273.914062 535.296875 272.300781 536.425781 275.628906 534.597656 C 276.898438 533.902344 277.925781 532.96875 278.707031 531.796875 C 279.519531 533.132812 280.621094 534.179688 282.015625 534.933594 C 284.945312 536.503906 289.414062 536.355469 292.128906 535.015625 C 293.539062 534.320312 294.621094 533.246094 295.375 531.796875 C 296.667969 534.003906 298.675781 535.421875 302.703125 535.601562 L 302.703125 535.640625 L 312.375 535.640625 L 312.375 505.652344 L 309.027344 505.652344 Z M 609.613281 530.816406 C 606.648438 537.742188 596.445312 537.941406 593.492188 530.710938 C 592.625 528.589844 592.625 526.074219 593.492188 523.921875 C 597.066406 515.0625 610.304688 517.609375 610.304688 527.328125 C 610.304688 528.578125 610.074219 529.742188 609.613281 530.816406 M 577.117188 530.816406 C 574.554688 536.769531 566.832031 537.648438 562.796875 533.492188 C 559.484375 530.066406 559.578125 524.488281 562.777344 521.125 C 565.382812 518.359375 569.398438 517.910156 572.46875 519.179688 C 577.3125 521.199219 578.925781 526.617188 577.117188 530.816406 M 495.648438 532.296875 C 493.085938 532.21875 491.226562 532.554688 488.800781 531.757812 C 479.976562 528.859375 482.082031 516.296875 492.335938 516.296875 L 495.648438 516.296875 Z M 624.121094 532.296875 L 612.609375 532.296875 C 616.203125 524.414062 610.621094 515.167969 601.425781 515.167969 C 592.960938 515.167969 587.035156 523.84375 590.496094 532.296875 L 580.109375 532.296875 C 583.613281 524.644531 578.304688 515.167969 568.929688 515.167969 C 560.457031 515.167969 554.539062 523.847656 558 532.296875 L 547.363281 532.296875 L 547.363281 505.652344 L 544.015625 505.652344 L 544.015625 532.296875 L 533.335938 532.296875 C 533.152344 528.863281 534.117188 523.785156 531.242188 520.578125 C 529.292969 518.382812 527.125 517.695312 524.164062 517.695312 L 509.339844 517.695312 L 515.648438 505.652344 L 512.003906 505.652344 L 505.570312 517.65625 C 505.777344 518.988281 506.183594 520.027344 507.078125 521.039062 C 523.832031 521.179688 524.925781 520.6875 526.90625 521.519531 C 528.460938 522.164062 529.40625 523.335938 529.734375 524.757812 C 530.132812 526.472656 529.933594 527.761719 529.988281 532.296875 L 498.996094 532.296875 L 498.996094 512.957031 L 493.71875 512.957031 C 484.84375 512.957031 479.902344 518.234375 479.902344 524.316406 C 479.902344 531.941406 486.035156 535.640625 493.71875 535.640625 L 560.175781 535.640625 C 565.105469 540.949219 573.402344 540.496094 577.933594 535.640625 L 592.671875 535.640625 C 597.585938 540.933594 605.875 540.515625 610.433594 535.640625 L 627.476562 535.640625 L 627.476562 505.652344 L 624.121094 505.652344 Z M 637.230469 535.640625 L 640.578125 535.640625 L 640.578125 505.652344 L 637.230469 505.652344 Z M 390.394531 543 L 393.839844 543 L 393.839844 539.566406 L 390.394531 539.566406 Z M 423.148438 532.296875 L 417.914062 519.472656 C 423.285156 514.925781 429.992188 515.695312 434.371094 519.472656 L 429.136719 532.296875 Z M 446.890625 532.296875 L 432.65625 532.296875 L 438.515625 518.300781 C 435.179688 515.382812 430.535156 512.664062 426.121094 512.664062 C 421.597656 512.664062 417.070312 515.292969 413.722656 518.300781 L 419.628906 532.296875 L 407.152344 532.296875 L 407.152344 512.957031 L 403.800781 512.957031 L 403.800781 536.351562 C 403.800781 539.308594 403.585938 541.492188 400.617188 541.492188 C 399.929688 541.492188 399.5625 541.429688 398.902344 541.238281 L 398.023438 544.460938 C 400.824219 545.226562 404.128906 544.96875 405.769531 542.554688 C 407.253906 540.371094 407.078125 537.355469 407.152344 535.640625 L 450.242188 535.640625 L 450.242188 505.652344 L 446.890625 505.652344 Z M 192.566406 515.878906 C 188.84375 511.816406 184.53125 513.289062 183.0625 512.957031 L 183.0625 516.296875 C 185.507812 516.390625 186.636719 516.027344 188.296875 516.820312 C 189.691406 517.488281 190.675781 518.574219 191.082031 520.097656 C 191.535156 521.851562 191.28125 523.222656 191.355469 532.296875 L 175.648438 532.296875 L 175.648438 535.640625 L 194.703125 535.640625 C 194.566406 522.976562 195.050781 521.632812 194.179688 518.804688 C 193.832031 517.664062 193.292969 516.6875 192.566406 515.878906 M 378.148438 543.039062 L 381.589844 543.039062 L 381.589844 539.605469 L 378.148438 539.605469 Z M 357.78125 532.296875 C 355.222656 532.21875 353.363281 532.554688 350.929688 531.757812 C 342.097656 528.855469 344.226562 516.296875 354.46875 516.296875 L 357.78125 516.296875 Z M 393.792969 512.957031 L 390.445312 512.957031 L 390.445312 532.296875 L 377.796875 532.296875 L 377.796875 512.957031 L 374.449219 512.957031 L 374.449219 532.296875 L 361.128906 532.296875 L 361.128906 512.957031 C 356.917969 513.085938 350.632812 512.105469 345.800781 516.191406 C 338.957031 521.988281 340.722656 535.640625 355.855469 535.640625 L 393.792969 535.640625 Z M 372.28125 543.039062 L 375.722656 543.039062 L 375.722656 539.605469 L 372.28125 539.605469 Z M 148.40625 505.652344 L 144.964844 505.652344 L 144.964844 509.085938 L 148.40625 509.085938 Z M 493.113281 505.652344 L 489.671875 505.652344 L 489.671875 509.085938 L 493.113281 509.085938 Z M 361.113281 505.652344 L 357.671875 505.652344 L 357.671875 509.085938 L 361.113281 509.085938 Z M 168.171875 543.039062 L 171.613281 543.039062 L 171.613281 539.605469 L 168.171875 539.605469 Z M 355.246094 505.652344 L 351.804688 505.652344 L 351.804688 509.085938 L 355.246094 509.085938 Z M 154.277344 505.652344 L 150.832031 505.652344 L 150.832031 509.085938 L 154.277344 509.085938 Z M 162.300781 543.039062 L 165.742188 543.039062 L 165.742188 539.605469 L 162.300781 539.605469 Z M 150.941406 532.296875 C 148.390625 532.21875 146.519531 532.554688 144.09375 531.757812 C 135.277344 528.867188 137.363281 516.296875 147.632812 516.296875 L 150.941406 516.296875 Z M 170.957031 512.957031 L 167.609375 512.957031 L 167.609375 532.296875 L 154.292969 532.296875 L 154.292969 512.957031 C 150.273438 513.078125 147.082031 512.554688 143.320312 513.8125 C 140.164062 514.871094 137.585938 516.820312 136.179688 519.808594 C 134.714844 522.917969 134.980469 526.878906 136.328125 529.414062 C 138.753906 533.992188 143.832031 535.640625 149.011719 535.640625 L 170.957031 535.640625 Z M 460 535.640625 L 463.347656 535.640625 L 463.347656 505.652344 L 460 505.652344 Z M 498.980469 505.652344 L 495.539062 505.652344 L 495.539062 509.085938 L 498.980469 509.085938 Z M 498.980469 505.652344 " fill-opacity="1" fill-rule="nonzero"/></g><path fill="#ffffff" d="M 138.476562 557.605469 L 142.679688 557.605469 L 142.679688 569.609375 L 154.0625 557.605469 L 159.226562 557.605469 L 149.277344 567.871094 L 159.667969 581.476562 L 154.578125 581.476562 L 146.410156 570.734375 L 142.679688 574.554688 L 142.679688 581.476562 L 138.476562 581.476562 " fill-opacity="1" fill-rule="nonzero"/><path fill="#ffffff" d="M 163.503906 557.605469 L 167.707031 557.605469 L 167.707031 581.476562 L 163.503906 581.476562 Z M 163.503906 557.605469 " fill-opacity="1" fill-rule="nonzero"/><path fill="#ffffff" d="M 174.183594 557.605469 L 178.082031 557.605469 L 190.898438 574.113281 L 190.898438 557.605469 L 195.035156 557.605469 L 195.035156 581.476562 L 191.515625 581.476562 L 178.320312 564.492188 L 178.320312 581.476562 L 174.183594 581.476562 " fill-opacity="1" fill-rule="nonzero"/><path fill="#ffffff" d="M 200.242188 569.609375 L 200.242188 569.542969 C 200.242188 562.855469 205.371094 557.191406 212.582031 557.191406 C 216.75 557.191406 219.316406 558.355469 221.777344 560.433594 L 219.113281 563.605469 C 212.632812 558.105469 204.652344 562.066406 204.652344 569.472656 L 204.652344 569.542969 C 204.652344 574.453125 207.898438 578.066406 212.785156 578.066406 C 215.042969 578.066406 217.09375 577.351562 218.5625 576.257812 L 218.5625 571.792969 L 212.445312 571.792969 L 212.445312 568.144531 L 222.632812 568.144531 L 222.632812 578.167969 C 214.074219 585.476562 200.242188 581.722656 200.242188 569.609375 " fill-opacity="1" fill-rule="nonzero"/><path fill="#ffffff" d="M 237.363281 577.65625 C 248.519531 577.65625 248.386719 561.421875 237.363281 561.421875 L 232.644531 561.421875 L 232.644531 577.65625 Z M 228.441406 557.605469 L 237.363281 557.605469 C 254.433594 557.605469 254.203125 581.476562 237.363281 581.476562 L 228.441406 581.476562 Z M 228.441406 557.605469 " fill-opacity="1" fill-rule="nonzero"/><path fill="#ffffff" d="M 274.628906 569.609375 L 274.628906 569.542969 C 274.628906 564.902344 271.246094 561.050781 266.492188 561.050781 C 261.742188 561.050781 258.425781 564.835938 258.425781 569.472656 L 258.425781 569.542969 C 258.425781 574.179688 261.808594 578.035156 266.558594 578.035156 C 271.3125 578.035156 274.628906 574.25 274.628906 569.609375 M 254.015625 569.609375 L 254.015625 569.542969 C 254.015625 562.824219 259.210938 557.191406 266.558594 557.191406 C 273.910156 557.191406 279.039062 562.753906 279.039062 569.472656 L 279.039062 569.542969 C 279.039062 576.257812 273.84375 581.886719 266.492188 581.886719 C 259.144531 581.886719 254.015625 576.328125 254.015625 569.609375 " fill-opacity="1" fill-rule="nonzero"/><path fill="#ffffff" d="M 284.261719 557.605469 L 288.738281 557.605469 L 296.019531 568.894531 L 303.300781 557.605469 L 307.777344 557.605469 L 307.777344 581.476562 L 303.574219 581.476562 L 303.574219 564.355469 L 296.019531 575.613281 L 295.882812 575.613281 L 288.398438 564.425781 L 288.398438 581.476562 L 284.261719 581.476562 " fill-opacity="1" fill-rule="nonzero"/><path fill="#ffffff" d="M 343.75 569.609375 L 343.75 569.542969 C 343.75 564.902344 340.367188 561.050781 335.613281 561.050781 C 330.863281 561.050781 327.546875 564.835938 327.546875 569.472656 L 327.546875 569.542969 C 327.546875 574.179688 330.933594 578.035156 335.683594 578.035156 C 340.4375 578.035156 343.75 574.25 343.75 569.609375 M 323.136719 569.609375 L 323.136719 569.542969 C 323.136719 562.824219 328.335938 557.191406 335.683594 557.191406 C 343.03125 557.191406 348.160156 562.753906 348.160156 569.472656 L 348.160156 569.542969 C 348.160156 576.257812 342.964844 581.886719 335.613281 581.886719 C 328.265625 581.886719 323.136719 576.328125 323.136719 569.609375 " fill-opacity="1" fill-rule="nonzero"/><path fill="#ffffff" d="M 353.386719 557.605469 L 371.195312 557.605469 L 371.195312 561.425781 L 357.589844 561.425781 L 357.589844 567.9375 L 369.65625 567.9375 L 369.65625 571.757812 L 357.589844 571.757812 L 357.589844 581.476562 L 353.386719 581.476562 " fill-opacity="1" fill-rule="nonzero"/><path fill="#ffffff" d="M 384.464844 578 L 386.992188 575 C 389.285156 576.976562 391.574219 578.101562 394.546875 578.101562 C 397.144531 578.101562 398.789062 576.910156 398.789062 575.101562 L 398.789062 575.035156 C 398.789062 569.703125 385.421875 573.339844 385.421875 564.253906 L 385.421875 564.1875 C 385.421875 556.859375 395.679688 554.992188 402.273438 560.265625 L 400.019531 563.4375 C 394.515625 559.34375 389.628906 560.953125 389.628906 563.8125 L 389.628906 563.882812 C 389.628906 569.140625 402.992188 565.816406 402.992188 574.625 L 402.992188 574.691406 C 402.992188 583.0625 391.121094 583.925781 384.464844 578 " fill-opacity="1" fill-rule="nonzero"/><path fill="#ffffff" d="M 421.894531 572 L 417.757812 562.449219 L 413.65625 572 Z M 415.878906 557.433594 L 419.773438 557.433594 L 430.300781 581.476562 L 425.859375 581.476562 L 423.433594 575.714844 L 412.117188 575.714844 L 409.660156 581.476562 L 405.347656 581.476562 Z M 415.878906 557.433594 " fill-opacity="1" fill-rule="nonzero"/><path fill="#ffffff" d="M 432.777344 571.351562 L 432.777344 557.605469 L 436.980469 557.605469 L 436.980469 571.179688 C 436.980469 575.613281 439.269531 578 443.03125 578 C 446.757812 578 449.046875 575.75 449.046875 571.351562 L 449.046875 557.605469 L 453.253906 557.605469 L 453.253906 571.144531 C 453.253906 578.273438 449.21875 581.855469 442.960938 581.855469 C 436.738281 581.855469 432.777344 578.273438 432.777344 571.351562 " fill-opacity="1" fill-rule="nonzero"/><path fill="#ffffff" d="M 468.328125 577.65625 C 479.488281 577.65625 479.355469 561.421875 468.328125 561.421875 L 463.613281 561.421875 L 463.613281 577.65625 Z M 459.40625 557.605469 L 468.328125 557.605469 C 485.398438 557.605469 485.167969 581.476562 468.328125 581.476562 L 459.40625 581.476562 Z M 459.40625 557.605469 " fill-opacity="1" fill-rule="nonzero"/><path fill="#ffffff" d="M 486.371094 557.605469 L 490.574219 557.605469 L 490.574219 581.476562 L 486.371094 581.476562 Z M 486.371094 557.605469 " fill-opacity="1" fill-rule="nonzero"/><path fill="#ffffff" d="M 521.722656 572 L 517.585938 562.449219 L 513.484375 572 Z M 515.703125 557.433594 L 519.601562 557.433594 L 530.128906 581.476562 L 525.6875 581.476562 L 523.257812 575.714844 L 511.941406 575.714844 L 509.484375 581.476562 L 505.175781 581.476562 Z M 515.703125 557.433594 " fill-opacity="1" fill-rule="nonzero"/><path fill="#ffffff" d="M 544.460938 569.4375 C 547.46875 569.4375 549.382812 567.871094 549.382812 565.449219 L 549.382812 565.378906 C 549.382812 562.824219 547.535156 561.421875 544.425781 561.421875 L 538.308594 561.421875 L 538.308594 569.4375 Z M 534.101562 557.605469 L 544.765625 557.605469 C 549.824219 557.605469 553.65625 560.144531 553.65625 565.140625 C 553.558594 565.402344 554.15625 570.667969 547.945312 572.441406 L 554.40625 581.476562 L 549.449219 581.476562 L 543.570312 573.15625 C 543.113281 573.15625 538.039062 573.15625 538.308594 573.15625 L 538.308594 581.476562 L 534.101562 581.476562 Z M 534.101562 557.605469 " fill-opacity="1" fill-rule="nonzero"/><path fill="#ffffff" d="M 574.046875 572 L 569.910156 562.449219 L 565.808594 572 Z M 568.027344 557.433594 L 571.925781 557.433594 L 582.453125 581.476562 L 578.011719 581.476562 L 575.582031 575.714844 L 564.265625 575.714844 L 561.808594 581.476562 L 557.5 581.476562 Z M 568.027344 557.433594 " fill-opacity="1" fill-rule="nonzero"/><path fill="#ffffff" d="M 597.535156 577.761719 C 600.40625 577.761719 602.148438 576.632812 602.148438 574.488281 L 602.148438 574.417969 C 602.148438 572.40625 600.542969 571.210938 597.226562 571.210938 L 590.5625 571.210938 L 590.5625 577.761719 Z M 596.304688 567.667969 C 599.003906 567.667969 600.816406 566.609375 600.816406 564.425781 L 600.816406 564.355469 C 600.816406 562.480469 599.3125 561.324219 596.609375 561.324219 L 590.5625 561.324219 L 590.5625 567.667969 Z M 586.425781 557.605469 L 597.160156 557.605469 C 601.367188 557.605469 605.019531 559.570312 605.019531 563.675781 C 604.921875 563.9375 605.449219 567.070312 601.601562 569.0625 C 604.40625 570.019531 606.351562 571.625 606.351562 574.863281 L 606.351562 574.929688 C 606.351562 579.195312 602.832031 581.476562 597.5 581.476562 L 586.425781 581.476562 Z M 586.425781 557.605469 " fill-opacity="1" fill-rule="nonzero"/><path fill="#ffffff" d="M 611.558594 557.605469 L 615.765625 557.605469 L 615.765625 581.476562 L 611.558594 581.476562 Z M 611.558594 557.605469 " fill-opacity="1" fill-rule="nonzero"/><path fill="#ffffff" d="M 636.324219 572 L 632.1875 562.449219 L 628.085938 572 Z M 630.308594 557.433594 L 634.203125 557.433594 L 644.734375 581.476562 L 640.289062 581.476562 L 637.863281 575.714844 L 626.546875 575.714844 L 624.089844 581.476562 L 619.777344 581.476562 Z M 630.308594 557.433594 " fill-opacity="1" fill-rule="nonzero"/><path fill="#ffffff" d="M 939.152344 581.308594 L 939.125 581.257812 L 926.035156 558.605469 L 822.210938 378.949219 L 796.019531 378.949219 L 912.9375 581.269531 L 912.910156 581.308594 L 939.152344 581.308594 " fill-opacity="1" fill-rule="nonzero"/><path fill="#ffffff" d="M 1043.882812 581.308594 L 1043.859375 581.257812 L 1030.761719 558.605469 L 1017.675781 535.957031 L 1004.578125 513.300781 L 991.492188 490.644531 L 978.394531 467.988281 L 926.9375 378.949219 L 900.757812 378.949219 L 965.300781 490.644531 L 978.394531 513.300781 L 991.492188 535.957031 L 1004.578125 558.605469 L 1017.675781 581.257812 L 1017.640625 581.308594 L 1043.882812 581.308594 " fill-opacity="1" fill-rule="nonzero"/><path fill="#ffffff" d="M 1083.128906 558.605469 L 1070.039062 535.957031 L 1056.945312 513.300781 L 1043.859375 490.644531 L 1030.761719 467.988281 L 1017.675781 445.339844 L 1004.578125 422.683594 L 979.304688 378.949219 L 953.125 378.949219 L 991.480469 445.332031 L 1017.675781 490.644531 L 1030.761719 513.300781 L 1043.859375 535.957031 L 1056.945312 558.605469 L 1070.039062 581.257812 L 1070.003906 581.308594 L 1096.246094 581.308594 L 1096.222656 581.269531 L 1083.128906 558.605469 " fill-opacity="1" fill-rule="nonzero"/><path fill="#ffffff" d="M 1139.566406 234.410156 L 1113.375 234.410156 L 1017.804688 399.800781 L 1030.902344 422.453125 L 1139.566406 234.410156 " fill-opacity="1" fill-rule="nonzero"/><path fill="#ffffff" d="M 965.332031 581.308594 L 991.515625 581.308594 L 991.492188 581.257812 L 978.394531 558.605469 L 965.308594 535.957031 L 952.214844 513.300781 L 874.578125 378.949219 L 848.394531 378.949219 L 939.117188 535.949219 L 952.214844 558.605469 L 965.308594 581.257812 L 965.273438 581.308594 L 965.332031 581.308594 " fill-opacity="1" fill-rule="nonzero"/><path fill="#ffffff" d="M 1057.085938 467.757812 L 1191.929688 234.410156 L 1165.75 234.410156 L 1043.988281 445.101562 L 1044.128906 445.339844 L 1057.085938 467.757812 " fill-opacity="1" fill-rule="nonzero"/><path fill="#ffffff" d="M 1083.265625 513.070312 L 1244.296875 234.410156 L 1218.117188 234.410156 L 1070.171875 490.402344 L 1070.3125 490.644531 L 1083.265625 513.070312 " fill-opacity="1" fill-rule="nonzero"/><path fill="#ffffff" d="M 1296.660156 234.410156 L 1270.480469 234.410156 L 1096.355469 535.714844 L 1096.496094 535.957031 L 1109.449219 558.371094 L 1296.660156 234.410156 " fill-opacity="1" fill-rule="nonzero"/><path stroke-linecap="butt" transform="matrix(0.000000000000000184, 3.002034, -3.173553, 0.000000000000000194, 719.68257, 269.625506)" fill="none" stroke-linejoin="miter" d="M -0.000168431 -0.000322583 L 92.191242 -0.000322583 " stroke="#ffffff" stroke-width="1" stroke-opacity="1" stroke-miterlimit="4"/></svg>