<svg xmlns="http://www.w3.org/2000/svg" xmlns:xlink="http://www.w3.org/1999/xlink" width="500" zoomAndPan="magnify" viewBox="0 0 375 374.999991" height="500" preserveAspectRatio="xMidYMid meet" version="1.0"><defs><filter x="0%" y="0%" width="100%" height="100%" id="id1"><feColorMatrix values="0 0 0 0 1 0 0 0 0 1 0 0 0 0 1 0 0 0 1 0" color-interpolation-filters="sRGB"/></filter><mask id="id2"><g filter="url(#id1)"><rect x="-37.5" width="450" fill="#000000" y="-37.499999" height="449.999989" fill-opacity="0.149"/></g></mask><clipPath id="id3"><path d="M 0.980469 0.980469 L 285.980469 0.980469 L 285.980469 285.980469 L 0.980469 285.980469 Z M 0.980469 0.980469 " clip-rule="nonzero"/></clipPath><clipPath id="id4"><rect x="0" width="286" y="0" height="286"/></clipPath><clipPath id="id5"><path d="M 268 206 L 361.355469 206 L 361.355469 275 L 268 275 Z M 268 206 " clip-rule="nonzero"/></clipPath><clipPath id="id6"><path d="M 13.355469 206 L 107 206 L 107 275 L 13.355469 275 Z M 13.355469 206 " clip-rule="nonzero"/></clipPath><clipPath id="id7"><path d="M 137 100.769531 L 237 100.769531 L 237 200 L 137 200 Z M 137 100.769531 " clip-rule="nonzero"/></clipPath><clipPath id="id8"><path d="M 112 206 L 262 206 L 262 286.769531 L 112 286.769531 Z M 112 206 " clip-rule="nonzero"/></clipPath></defs><rect x="-37.5" width="450" fill="#ffffff" y="-37.499999" height="449.999989" fill-opacity="1"/><rect x="-37.5" width="450" fill="#ffffff" y="-37.499999" height="449.999989" fill-opacity="1"/><rect x="-37.5" width="450" fill="#ffffff" y="-37.499999" height="449.999989" fill-opacity="1"/><rect x="-37.5" width="450" fill="#ffffff" y="-37.499999" height="449.999989" fill-opacity="1"/><g mask="url(#id2)"><g transform="matrix(1, 0, 0, 1, 44, 44)"><g clip-path="url(#id4)"><g clip-path="url(#id3)"><path fill="#075e54" d="M 143.480469 0.980469 C 64.78125 0.980469 0.980469 64.78125 0.980469 143.480469 C 0.980469 222.183594 64.78125 285.980469 143.480469 285.980469 C 222.183594 285.980469 285.980469 222.183594 285.980469 143.480469 C 285.980469 64.78125 222.183594 0.980469 143.480469 0.980469 " fill-opacity="1" fill-rule="nonzero"/></g></g></g></g><path fill="#075e54" d="M 298.703125 199.964844 C 274.511719 199.964844 255.28125 180.753906 255.28125 156.585938 C 255.28125 132.414062 274.511719 113.203125 298.703125 113.203125 C 322.894531 113.203125 342.125 132.414062 342.125 156.585938 C 342.125 180.753906 322.894531 199.964844 298.703125 199.964844 Z M 298.703125 125.597656 C 281.335938 125.597656 267.6875 139.230469 267.6875 156.585938 C 267.6875 173.9375 281.335938 187.570312 298.703125 187.570312 C 316.070312 187.570312 329.71875 173.9375 329.71875 156.585938 C 329.71875 139.230469 316.070312 125.597656 298.703125 125.597656 Z M 298.703125 125.597656 " fill-opacity="1" fill-rule="nonzero"/><g clip-path="url(#id5)"><path fill="#075e54" d="M 360.734375 274.332031 L 286.917969 274.332031 C 283.195312 274.332031 280.714844 271.855469 280.714844 268.136719 C 280.714844 264.417969 283.195312 261.9375 286.917969 261.9375 L 348.328125 261.9375 C 345.226562 237.769531 324.136719 218.558594 299.324219 218.558594 C 291.257812 218.558594 283.816406 220.417969 276.992188 224.132812 C 273.890625 225.375 270.167969 224.753906 268.925781 221.65625 C 267.6875 218.558594 268.308594 214.839844 271.410156 213.597656 C 280.09375 209.261719 289.398438 206.78125 299.324219 206.78125 C 333.441406 206.78125 361.355469 234.671875 361.355469 268.753906 L 361.355469 274.332031 Z M 360.734375 274.332031 " fill-opacity="1" fill-rule="nonzero"/></g><path fill="#075e54" d="M 75.386719 199.964844 C 51.195312 199.964844 31.964844 180.753906 31.964844 156.585938 C 31.964844 132.414062 51.195312 113.203125 75.386719 113.203125 C 99.582031 113.203125 118.808594 132.414062 118.808594 156.585938 C 118.808594 180.753906 99.582031 199.964844 75.386719 199.964844 Z M 75.386719 125.597656 C 58.019531 125.597656 44.371094 139.230469 44.371094 156.585938 C 44.371094 173.9375 58.019531 187.570312 75.386719 187.570312 C 92.757812 187.570312 106.402344 173.9375 106.402344 156.585938 C 106.402344 139.230469 92.757812 125.597656 75.386719 125.597656 Z M 75.386719 125.597656 " fill-opacity="1" fill-rule="nonzero"/><g clip-path="url(#id6)"><path fill="#075e54" d="M 87.171875 274.332031 L 13.355469 274.332031 L 13.355469 268.136719 C 13.355469 234.050781 41.269531 206.164062 75.386719 206.164062 C 85.3125 206.164062 94.617188 208.023438 102.683594 212.359375 C 105.785156 213.597656 107.023438 217.316406 105.785156 220.417969 C 104.542969 223.515625 100.820312 224.753906 97.71875 223.515625 C 90.273438 220.417969 82.832031 218.558594 75.386719 218.558594 C 49.953125 218.558594 29.484375 237.769531 26.382812 261.9375 L 87.792969 261.9375 C 91.515625 261.9375 93.996094 264.417969 93.996094 268.136719 C 93.996094 271.855469 90.894531 274.332031 87.171875 274.332031 Z M 87.171875 274.332031 " fill-opacity="1" fill-rule="nonzero"/></g><g clip-path="url(#id7)"><path fill="#075e54" d="M 187.046875 199.964844 C 159.75 199.964844 137.417969 177.65625 137.417969 150.386719 C 137.417969 123.117188 159.75 100.808594 187.046875 100.808594 C 214.339844 100.808594 236.671875 123.117188 236.671875 150.386719 C 236.671875 177.65625 214.339844 199.964844 187.046875 199.964844 Z M 187.046875 113.203125 C 166.574219 113.203125 149.824219 129.9375 149.824219 150.386719 C 149.824219 170.835938 166.574219 187.570312 187.046875 187.570312 C 207.515625 187.570312 224.265625 170.835938 224.265625 150.386719 C 224.265625 129.9375 207.515625 113.203125 187.046875 113.203125 Z M 187.046875 113.203125 " fill-opacity="1" fill-rule="nonzero"/></g><g clip-path="url(#id8)"><path fill="#075e54" d="M 261.484375 286.726562 L 149.824219 286.726562 C 146.105469 286.726562 143.621094 284.25 143.621094 280.53125 C 143.621094 276.8125 146.105469 274.332031 149.824219 274.332031 L 249.078125 274.332031 C 245.976562 243.347656 219.300781 218.558594 187.046875 218.558594 C 152.925781 218.558594 125.011719 246.445312 125.011719 280.53125 C 125.011719 284.25 122.53125 286.726562 118.808594 286.726562 C 115.089844 286.726562 112.605469 284.25 112.605469 280.53125 C 112.605469 239.628906 146.105469 206.164062 187.046875 206.164062 C 227.988281 206.164062 261.484375 239.628906 261.484375 280.53125 Z M 261.484375 286.726562 " fill-opacity="1" fill-rule="nonzero"/></g></svg>