<svg xmlns="http://www.w3.org/2000/svg" xmlns:xlink="http://www.w3.org/1999/xlink" width="500" zoomAndPan="magnify" viewBox="0 0 375 374.999991" height="500" preserveAspectRatio="xMidYMid meet" version="1.0"><defs><filter x="0%" y="0%" width="100%" height="100%" id="id1"><feColorMatrix values="0 0 0 0 1 0 0 0 0 1 0 0 0 0 1 0 0 0 1 0" color-interpolation-filters="sRGB"/></filter><mask id="id2"><g filter="url(#id1)"><rect x="-37.5" width="450" fill="#000000" y="-37.499999" height="449.999989" fill-opacity="0.149"/></g></mask><clipPath id="id3"><path d="M 0.980469 0.980469 L 285.980469 0.980469 L 285.980469 285.980469 L 0.980469 285.980469 Z M 0.980469 0.980469 " clip-rule="nonzero"/></clipPath><clipPath id="id4"><rect x="0" width="286" y="0" height="286"/></clipPath><clipPath id="id5"><path d="M 88 24.054688 L 286 24.054688 L 286 293.304688 L 88 293.304688 Z M 88 24.054688 " clip-rule="nonzero"/></clipPath></defs><rect x="-37.5" width="450" fill="#ffffff" y="-37.499999" height="449.999989" fill-opacity="1"/><rect x="-37.5" width="450" fill="#ffffff" y="-37.499999" height="449.999989" fill-opacity="1"/><rect x="-37.5" width="450" fill="#ffffff" y="-37.499999" height="449.999989" fill-opacity="1"/><rect x="-37.5" width="450" fill="#ffffff" y="-37.499999" height="449.999989" fill-opacity="1"/><g mask="url(#id2)"><g transform="matrix(1, 0, 0, 1, 44, 44)"><g clip-path="url(#id4)"><g clip-path="url(#id3)"><path fill="#075e54" d="M 143.480469 0.980469 C 64.78125 0.980469 0.980469 64.78125 0.980469 143.480469 C 0.980469 222.183594 64.78125 285.980469 143.480469 285.980469 C 222.183594 285.980469 285.980469 222.183594 285.980469 143.480469 C 285.980469 64.78125 222.183594 0.980469 143.480469 0.980469 " fill-opacity="1" fill-rule="nonzero"/></g></g></g></g><g clip-path="url(#id5)"><path fill="#075e54" d="M 231.8125 248.429688 C 229.957031 250.027344 227.15625 249.796875 225.5625 247.957031 L 216.859375 237.789062 C 215.246094 235.898438 212.425781 235.6875 210.535156 237.300781 C 208.664062 238.914062 208.433594 241.753906 210.046875 243.628906 L 218.75 253.792969 C 220.34375 255.652344 220.132812 258.441406 218.277344 260.035156 C 216.421875 261.613281 213.636719 261.417969 212.023438 259.5625 L 206.226562 252.777344 C 204.617188 250.902344 201.78125 250.691406 199.90625 252.304688 C 198.015625 253.917969 197.804688 256.738281 199.414062 258.613281 L 205.210938 265.398438 C 206.804688 267.257812 206.597656 270.0625 204.722656 271.65625 C 203.828125 272.429688 202.65625 272.777344 201.515625 272.707031 C 200.34375 272.621094 199.257812 272.078125 198.488281 271.183594 L 195.597656 267.78125 C 193.96875 265.90625 191.148438 265.695312 189.257812 267.308594 C 187.382812 268.90625 187.175781 271.746094 188.769531 273.621094 L 191.675781 277.019531 C 192.445312 277.914062 192.8125 279.035156 192.691406 280.316406 C 192.621094 281.457031 192.09375 282.507812 191.183594 283.277344 C 190.308594 284.050781 189.171875 284.417969 187.980469 284.3125 C 186.789062 284.226562 185.71875 283.683594 184.949219 282.789062 L 178.609375 275.410156 C 181.359375 270.621094 180.992188 264.46875 177.210938 260.050781 C 174.96875 257.441406 171.9375 255.949219 168.785156 255.53125 C 168.855469 252.21875 167.789062 249.027344 165.617188 246.503906 C 163.375 243.890625 160.34375 242.402344 157.175781 241.980469 C 157.246094 238.789062 156.230469 235.5625 154.003906 232.933594 C 151.761719 230.339844 148.734375 228.851562 145.5625 228.429688 C 145.652344 225.238281 144.636719 221.996094 142.394531 219.402344 C 138.644531 214.984375 132.640625 213.6875 127.527344 215.617188 L 124.164062 211.585938 L 163.621094 177.699219 L 174.058594 180.453125 L 156.878906 195.195312 C 151.253906 200.015625 150.609375 208.480469 155.421875 214.089844 C 158.066406 217.195312 161.816406 218.789062 165.597656 218.789062 C 168.679688 218.789062 171.796875 217.71875 174.300781 215.546875 L 194.601562 198.140625 L 232.285156 242.171875 C 233.058594 243.066406 233.425781 244.1875 233.320312 245.46875 C 233.25 246.609375 232.707031 247.660156 231.8125 248.429688 Z M 163.671875 271.65625 C 162.078125 269.800781 162.304688 266.996094 164.164062 265.398438 C 164.984375 264.699219 166.019531 264.328125 167.035156 264.328125 C 168.277344 264.328125 169.539062 264.875 170.414062 265.890625 C 171.992188 267.746094 171.78125 270.550781 169.925781 272.148438 C 168.066406 273.726562 165.265625 273.515625 163.671875 271.65625 Z M 152.550781 251.847656 C 153.375 251.148438 154.40625 250.78125 155.421875 250.78125 C 156.683594 250.78125 157.929688 251.324219 158.804688 252.339844 C 159.574219 253.234375 159.941406 254.375 159.855469 255.566406 C 159.765625 256.738281 159.222656 257.828125 158.332031 258.597656 C 157.421875 259.367188 156.246094 259.738281 155.089844 259.648438 C 153.917969 259.5625 152.832031 259 152.0625 258.105469 C 150.484375 256.25 150.695312 253.445312 152.550781 251.847656 Z M 139.417969 241.332031 C 139.503906 240.15625 140.046875 239.070312 140.941406 238.296875 C 141.78125 237.597656 142.796875 237.246094 143.832031 237.246094 C 145.074219 237.246094 146.316406 237.753906 147.191406 238.773438 C 148.785156 240.648438 148.574219 243.453125 146.703125 245.046875 C 145.808594 245.800781 144.652344 246.167969 143.496094 246.097656 C 142.304688 246.011719 141.238281 245.46875 140.46875 244.558594 C 139.695312 243.664062 139.328125 242.503906 139.417969 241.332031 Z M 129.347656 224.75 C 130.171875 224.03125 131.203125 223.679688 132.21875 223.679688 C 133.480469 223.679688 134.722656 224.207031 135.597656 225.238281 C 137.175781 227.078125 136.964844 229.902344 135.109375 231.480469 C 133.253906 233.074219 130.449219 232.863281 128.855469 231.007812 C 127.28125 229.148438 127.492188 226.34375 129.347656 224.75 Z M 97.4375 187.480469 L 146.703125 145.21875 L 164.058594 165.5 L 164.058594 165.515625 L 114.828125 207.761719 Z M 115.371094 64.441406 L 137.789062 64.441406 C 142.726562 64.441406 146.753906 60.410156 146.753906 55.46875 L 146.753906 33.03125 L 258.835938 33.03125 L 258.835938 163.414062 L 238.257812 139.382812 C 235.035156 135.628906 229.363281 135.191406 225.613281 138.398438 L 205.351562 155.804688 C 202.023438 158.664062 201.308594 163.429688 203.425781 167.113281 L 192.917969 167.796875 C 190.046875 167.988281 187.261719 169.128906 185.074219 170.984375 L 182.324219 173.351562 L 171.464844 170.496094 C 172.324219 169.214844 172.882812 167.777344 173.007812 166.199219 C 173.199219 163.816406 172.429688 161.484375 170.871094 159.664062 L 153.53125 139.382812 C 150.308594 135.628906 144.636719 135.191406 140.886719 138.398438 L 115.371094 160.292969 Z M 137.789062 39.375 L 137.789062 55.46875 L 121.710938 55.46875 Z M 276.769531 198.121094 L 256.488281 215.476562 L 211.183594 162.625 L 231.445312 145.234375 Z M 201.394531 192.300781 C 203.269531 190.6875 203.480469 187.882812 201.867188 185.992188 C 200.257812 184.117188 197.417969 183.90625 195.546875 185.519531 L 192.164062 188.429688 C 192.164062 188.429688 192.164062 188.429688 192.148438 188.429688 L 168.46875 208.746094 C 166.613281 210.339844 163.8125 210.113281 162.21875 208.253906 C 160.625 206.414062 160.851562 203.609375 162.707031 202.011719 L 190.90625 177.804688 C 191.640625 177.175781 192.53125 176.804688 193.496094 176.753906 L 210.519531 175.648438 L 246.789062 217.945312 L 233.285156 229.535156 Z M 253.582031 223.941406 C 254.300781 224.1875 255.035156 224.378906 255.808594 224.449219 C 256.050781 224.449219 256.28125 224.46875 256.523438 224.46875 C 258.660156 224.46875 260.691406 223.714844 262.339844 222.3125 L 282.601562 204.941406 C 286.347656 201.734375 286.785156 196.054688 283.582031 192.285156 L 267.804688 173.878906 L 267.804688 33.03125 C 267.804688 28.085938 263.773438 24.054688 258.835938 24.054688 L 144.128906 24.054688 C 141.761719 24.054688 139.453125 25.019531 137.789062 26.683594 L 109.03125 55.46875 C 107.367188 57.132812 106.40625 59.449219 106.40625 61.8125 L 106.40625 167.988281 L 91.605469 180.679688 C 87.859375 183.886719 87.421875 189.566406 90.625 193.335938 L 108.015625 213.617188 C 109.804688 215.6875 112.324219 216.738281 114.847656 216.738281 C 115.441406 216.738281 116.039062 216.667969 116.632812 216.542969 L 120.679688 221.417969 C 117.910156 226.203125 118.261719 232.410156 122.0625 236.84375 C 124.285156 239.457031 127.316406 240.929688 130.484375 241.332031 C 130.398438 244.660156 131.484375 247.851562 133.65625 250.394531 C 135.828125 252.9375 138.804688 254.496094 142.097656 254.917969 C 142.027344 258.105469 143.023438 261.332031 145.265625 263.945312 C 147.4375 266.484375 150.414062 268.027344 153.691406 268.464844 C 153.621094 271.65625 154.636719 274.882812 156.878906 277.496094 C 159.503906 280.597656 163.269531 282.175781 167.050781 282.175781 C 168.679688 282.175781 170.292969 281.859375 171.832031 281.28125 L 178.136719 288.625 C 180.46875 291.34375 183.707031 292.988281 187.28125 293.269531 C 187.628906 293.289062 187.996094 293.304688 188.347656 293.304688 C 191.535156 293.304688 194.582031 292.183594 197.035156 290.082031 C 199.589844 287.890625 201.203125 284.890625 201.570312 281.703125 C 204.96875 281.71875 208.050781 280.632812 210.570312 278.476562 C 213.164062 276.25 214.703125 273.234375 215.125 270.078125 C 218.347656 270.148438 221.515625 269.082031 224.109375 266.855469 C 226.699219 264.628906 228.242188 261.613281 228.660156 258.457031 C 231.675781 258.492188 235.054688 257.457031 237.644531 255.25 C 240.394531 252.867188 242.042969 249.605469 242.25 246.132812 C 242.566406 242.574219 241.464844 239.105469 239.117188 236.351562 L 253.582031 223.941406 " fill-opacity="1" fill-rule="nonzero"/></g><path fill="#075e54" d="M 134.617188 94.539062 C 135.460938 95.382812 136.597656 95.855469 137.789062 95.855469 C 137.894531 95.855469 138 95.855469 138.101562 95.839844 C 139.398438 95.75 140.589844 95.101562 141.378906 94.050781 L 154.828125 76.101562 C 156.316406 74.121094 155.914062 71.316406 153.917969 69.824219 C 151.957031 68.335938 149.136719 68.738281 147.648438 70.734375 L 137.296875 84.53125 L 136.476562 83.707031 C 134.722656 81.953125 131.886719 81.953125 130.136719 83.707031 C 128.382812 85.460938 128.382812 88.300781 130.136719 90.054688 L 134.617188 94.539062 " fill-opacity="1" fill-rule="nonzero"/><path fill="#075e54" d="M 196.070312 77.90625 L 240.902344 77.90625 C 243.371094 77.90625 245.386719 75.890625 245.386719 73.417969 C 245.386719 70.945312 243.371094 68.929688 240.902344 68.929688 L 196.070312 68.929688 C 193.601562 68.929688 191.585938 70.945312 191.585938 73.417969 C 191.585938 75.890625 193.601562 77.90625 196.070312 77.90625 " fill-opacity="1" fill-rule="nonzero"/><path fill="#075e54" d="M 173.65625 77.90625 L 178.136719 77.90625 C 180.605469 77.90625 182.621094 75.890625 182.621094 73.417969 C 182.621094 70.945312 180.605469 68.929688 178.136719 68.929688 L 173.65625 68.929688 C 171.183594 68.929688 169.171875 70.945312 169.171875 73.417969 C 169.171875 75.890625 171.183594 77.90625 173.65625 77.90625 " fill-opacity="1" fill-rule="nonzero"/><path fill="#075e54" d="M 173.65625 95.855469 L 205.039062 95.855469 C 207.507812 95.855469 209.519531 93.839844 209.519531 91.367188 C 209.519531 88.898438 207.507812 86.878906 205.039062 86.878906 L 173.65625 86.878906 C 171.183594 86.878906 169.171875 88.898438 169.171875 91.367188 C 169.171875 93.839844 171.183594 95.855469 173.65625 95.855469 " fill-opacity="1" fill-rule="nonzero"/><path fill="#075e54" d="M 154.828125 112 C 156.316406 110.019531 155.914062 107.214844 153.917969 105.726562 C 151.957031 104.234375 149.136719 104.636719 147.648438 106.636719 L 137.296875 120.433594 L 136.476562 119.609375 C 134.722656 117.855469 131.886719 117.855469 130.136719 119.609375 C 128.382812 121.359375 128.382812 124.199219 130.136719 125.953125 L 134.617188 130.441406 C 135.460938 131.28125 136.597656 131.753906 137.789062 131.753906 C 137.894531 131.753906 138 131.753906 138.101562 131.738281 C 139.398438 131.652344 140.589844 131 141.378906 129.949219 L 154.828125 112 " fill-opacity="1" fill-rule="nonzero"/><path fill="#075e54" d="M 240.902344 104.832031 L 196.070312 104.832031 C 193.601562 104.832031 191.585938 106.847656 191.585938 109.316406 C 191.585938 111.789062 193.601562 113.804688 196.070312 113.804688 L 240.902344 113.804688 C 243.371094 113.804688 245.386719 111.789062 245.386719 109.316406 C 245.386719 106.847656 243.371094 104.832031 240.902344 104.832031 " fill-opacity="1" fill-rule="nonzero"/><path fill="#075e54" d="M 173.65625 113.804688 L 178.136719 113.804688 C 180.605469 113.804688 182.621094 111.789062 182.621094 109.316406 C 182.621094 106.847656 180.605469 104.832031 178.136719 104.832031 L 173.65625 104.832031 C 171.183594 104.832031 169.171875 106.847656 169.171875 109.316406 C 169.171875 111.789062 171.183594 113.804688 173.65625 113.804688 " fill-opacity="1" fill-rule="nonzero"/><path fill="#075e54" d="M 173.65625 131.753906 L 205.039062 131.753906 C 207.507812 131.753906 209.519531 129.738281 209.519531 127.269531 C 209.519531 124.796875 207.507812 122.78125 205.039062 122.78125 L 173.65625 122.78125 C 171.183594 122.78125 169.171875 124.796875 169.171875 127.269531 C 169.171875 129.738281 171.183594 131.753906 173.65625 131.753906 " fill-opacity="1" fill-rule="nonzero"/></svg>