<?xml version="1.0" encoding="utf-8"?>
<svg viewBox="0 80.884 500 338.202" xmlns="http://www.w3.org/2000/svg">
  <path d="M 146.373 417.842 L 146.348 417.793 L 133.69 395.873 L 33.318 222.027 L 7.998 222.027 L 121.028 417.804 L 121.003 417.842 L 121.052 417.842 L 146.317 417.842 L 146.373 417.842" style="fill-opacity: 1; fill-rule: nonzero; stroke: none; fill: rgb(255, 255, 255);" id="path474"/>
  <path d="M 247.622 417.842 L 247.599 417.793 L 234.939 395.873 L 222.287 373.957 L 209.625 352.033 L 196.973 330.11 L 184.312 308.186 L 134.566 222.027 L 109.255 222.027 L 171.653 330.11 L 184.312 352.033 L 196.973 373.957 L 209.625 395.873 L 222.287 417.793 L 222.253 417.842 L 222.31 417.842 L 247.565 417.842 L 247.622 417.842" style="fill-opacity: 1; fill-rule: nonzero; stroke: none; fill: rgb(255, 255, 255);" id="path476"/>
  <path d="M 285.564 395.873 L 272.912 373.957 L 260.252 352.033 L 247.599 330.11 L 234.939 308.186 L 222.287 286.269 L 209.625 264.347 L 185.192 222.027 L 159.88 222.027 L 196.964 286.261 L 222.287 330.11 L 234.939 352.033 L 247.599 373.957 L 260.252 395.873 L 272.912 417.793 L 272.878 417.842 L 272.934 417.842 L 298.197 417.842 L 298.246 417.842 L 298.223 417.804 L 285.564 395.873" style="fill-opacity: 1; fill-rule: nonzero; stroke: none; fill: rgb(255, 255, 255);" id="path478"/>
  <path d="M 340.128 82.158 L 314.806 82.158 L 222.413 242.202 L 235.075 264.123 L 340.128 82.158" style="fill-opacity: 1; fill-rule: nonzero; stroke: none; fill: rgb(255, 255, 255);" id="path480"/>
  <path d="M 171.684 417.842 L 196.998 417.842 L 196.973 417.793 L 184.312 395.873 L 171.66 373.957 L 159.001 352.033 L 83.943 222.027 L 58.632 222.027 L 146.341 373.949 L 159.001 395.873 L 171.66 417.793 L 171.628 417.842 L 171.684 417.842" style="fill-opacity: 1; fill-rule: nonzero; stroke: none; fill: rgb(255, 255, 255);" id="path482"/>
  <path d="M 260.386 307.963 L 390.752 82.158 L 365.439 82.158 L 247.725 286.038 L 247.863 286.269 L 260.386 307.963" style="fill-opacity: 1; fill-rule: nonzero; stroke: none; fill: rgb(255, 255, 255);" id="path484"/>
  <path d="M 285.697 351.81 L 441.378 82.158 L 416.066 82.158 L 273.038 329.877 L 273.175 330.11 L 285.697 351.81" style="fill-opacity: 1; fill-rule: nonzero; stroke: none; fill: rgb(255, 255, 255);" id="path486"/>
  <path d="M 492.002 82.158 L 466.69 82.158 L 298.353 373.725 L 298.488 373.957 L 311.012 395.649 L 492.002 82.158" style="fill-opacity: 1; fill-rule: nonzero; stroke: none; fill: rgb(255, 255, 255);" id="path488"/>
</svg>